<?xml version="1.0" encoding="utf-8"?>
<!-- Generator: Adobe Illustrator 27.5.0, SVG Export Plug-In . SVG Version: 6.00 Build 0)  -->
<svg version="1.1" xmlns="http://www.w3.org/2000/svg" xmlns:xlink="http://www.w3.org/1999/xlink" x="0px" y="0px"
	 viewBox="0 0 500 500" style="enable-background:new 0 0 500 500;" xml:space="preserve">
<g id="BACKGROUND">
	<rect style="fill:#FFFFFF;" width="500" height="500"/>
</g>
<g id="OBJECTS">
	<g>
		<defs>
			<rect id="SVGID_1_" width="500" height="500"/>
		</defs>
		<clipPath id="SVGID_00000028301772364308534250000011793037732146421158_">
			<use xlink:href="#SVGID_1_"  style="overflow:visible;"/>
		</clipPath>
		<g style="clip-path:url(#SVGID_00000028301772364308534250000011793037732146421158_);">
			<g>
				<g>
					<rect x="-16.243" style="fill:#9EDCEF;" width="516.243" height="235.002"/>
					<path style="fill:#96D0E7;" d="M-16.243,95.678c0,0,48.527-60.741,132.502-9.205c83.976,51.536,147.704-4.759,179.51-21.697
						S404.667,2.819,500,39.095V234.07l-516.243,0.932V95.678z"/>
					<path style="fill:#84C5D8;" d="M-16.243,168.498c0,0,32.98-49.93,129.203-44.42c96.223,5.51,79.88,48.476,170.151,43.969
						c90.271-4.507,127.062-92.772,216.889-92.38v158.268l-516.243,1.066V168.498z"/>
					<path style="fill:#71B6C6;" d="M-16.243,224.227c0,0,87.527-68.57,172.997-25.723s139.675,20.466,173.231-9.871
						S431.611,128.092,500,204.322v30.68H-16.243V224.227z"/>
				</g>
				<path style="fill:#5FA3AF;" d="M-16.243,199.231h28.991v17.102h16.226V211.7c0-2.164,1.723-3.918,3.849-3.918h63.59v11.669
					h83.665v-10.11h16.226v16.136h15.8v-9.145h6.779v-7.455h43.475v7.455h1.727c3.717,0,6.73,3.067,6.73,6.85l0,0h30.206v-12.902
					c0-4.045,3.222-7.325,7.196-7.325H313v-21.005h28.332v24.73h21.876v9.954h50.475v-20.862h24.361v10.908h10.879
					c2.583,0,4.676,2.131,4.676,4.76v4.891h32.825v-17.102H500v35.771H-16.243V199.231z"/>
			</g>
			<g>
				<path style="fill:#BBEDF9;" d="M227.658,166.337c-4.11-3.923-11.947-2.458-14.361,2.686c-7.01-0.799-23.08-1.002-20.918,2
					c1.587,1.7,4.17,1.893,6.494,1.973c17.301,0.598,34.601,1.195,51.902,1.793c5.293,0.183,25.344,1.092,20.639-3.454
					c-0.444-0.463-8.619-2.412-20.323-1.848C251.19,158.461,232.252,159.164,227.658,166.337z"/>
				<path style="fill:#FFFFFF;" d="M418.805,57.586c-3.672-3.506-10.674-2.196-12.831,2.4c-6.264-0.714-20.622-0.895-18.69,1.787
					c1.418,1.519,3.726,1.691,5.803,1.763c15.458,0.534,30.916,1.068,46.374,1.602c4.729,0.163,22.645,0.976,18.441-3.086
					c-0.396-0.413-7.701-2.155-18.158-1.651C439.831,50.549,422.91,51.177,418.805,57.586z"/>
				<path style="fill:#FFFFFF;" d="M296.241,93.314c-4.203-1.042-8.576-1.397-12.892-1.045c-0.042-1.909-1.571-3.68-3.454-4
					c-1.883-0.32-3.911,0.846-4.581,2.634c0.191-2.308-1.347-4.648-3.542-5.388c-2.194-0.74-4.835,0.19-6.082,2.142
					c1.062-4.081-2.816-8.428-7.033-8.396c-4.213,0.032-7.862,3.789-8.414,7.966c0.479-3.625-6.67-3.636-6.403,1.398
					c-4.12-3.68-6.875,0.589-10.178,2.565c0,0-21.675-3.694-15.306,3.721C229.831,99.777,307.721,99.288,296.241,93.314z"/>
				<path style="fill:#BBEDF9;" d="M413.013,152.641c-1.111-1.593-0.487-4.106,1.239-4.995c1.727-0.889,4.134,0.062,4.786,1.892
					c0.133-2.557,1.581-5.165,3.974-6.076c2.393-0.911,5.568,0.458,6.053,2.972c-1.602-4.646,3.823-9.516,8.651-8.598
					c4.828,0.918,8.085,5.816,8.706,10.691c2.902-3.098,9.147-1.128,9.745,3.075l0,0c1.858-0.973,4.154-0.242,5.107,1.626
					l0.135,0.264c0.912-2.179,4.946-1.434,5.019,0.927c1.422-0.668,2.927-1.351,4.492-1.217c1.565,0.134,3.148,1.419,3.009,2.983
					c4.357-0.047,12.494-0.647,12.494,3.272c0,2.018-91.575,2.718-91.575-1.474C393.978,152.998,408.787,153.156,413.013,152.641z"
					/>
				<path style="fill:#BBEDF9;" d="M68.82,46.536c-0.966-1.386-0.424-3.571,1.078-4.345c1.502-0.773,3.596,0.054,4.163,1.645
					c0.115-2.224,1.375-4.493,3.457-5.285c2.081-0.792,4.843,0.398,5.265,2.585c-1.394-4.042,3.325-8.277,7.525-7.479
					c4.2,0.798,7.032,5.059,7.573,9.299c2.524-2.695,7.956-0.981,8.476,2.674l0,0c1.616-0.847,3.613-0.211,4.442,1.415l0.117,0.229
					c0.793-1.896,4.302-1.248,4.366,0.806c1.236-0.581,2.546-1.175,3.907-1.059c1.361,0.117,2.738,1.234,2.618,2.594
					c3.789-0.041,10.868-0.563,10.868,2.846c0,1.755-79.654,2.364-79.654-1.282C52.263,46.847,65.144,46.985,68.82,46.536z"/>
				<path style="fill:#F4F2F2;" d="M85.838,159.94c1.719-1.039-0.659-3.824-2.62-3.605c-0.853,0.095-1.722,0.037-2.555-0.167
					c-2.822-0.689-2.421-2.462-2.52-4.039c-0.226-3.585-3.676-6.647-7.262-6.447c-3.586,0.2-6.674,3.627-6.5,7.215
					c-0.591-0.803-1.311-1.507-2.121-2.088c-1.579-1.132-3.794-0.045-3.931,1.893l-0.003,0.035c-1.257-2.36-4.298-3.598-6.845-2.787
					c-2.548,0.811-4.313,3.579-3.975,6.231c-8.232-0.449-31.964,2.937-25.703,7.837c2.589,4.198,90.467,4.07,89.088-1.133
					C106.737,159.66,90.594,157.693,85.838,159.94z"/>
				
					<ellipse transform="matrix(0.1609 -0.987 0.987 0.1609 133.7974 247.4719)" style="fill:#EBF08D;" cx="212.443" cy="45.047" rx="14.675" ry="14.675"/>
			</g>
			<g>
				<rect x="-16.243" y="374.225" style="fill:#EBF08D;" width="516.243" height="142.018"/>
				<path style="fill:#E5E57F;" d="M-16.243,417.759c0,0,52.597-11.304,114.92,30.684c62.323,41.988,160.468,10.789,197.092-3.209
					C332.393,431.235,440.46,415.404,500,433.3v82.943H-16.243V417.759z"/>
				<path style="fill:#D3CE72;" d="M-16.243,460.833c0,0,43.105-6.195,121.274,27.533c89.511,38.622,164.725-2.753,194.323-19.273
					c29.598-16.52,121.833-43.364,200.647,36.825v10.325H-16.243V460.833z"/>
			</g>
			<g>
				<g>
					<rect x="-164.632" y="247.492" style="fill:#EBF08D;" width="748.665" height="118.525"/>
					<rect x="-164.632" y="235.002" style="fill:#EFB84B;" width="748.665" height="12.49"/>
					<rect x="-164.632" y="313.87" style="fill:#EBF08D;" width="748.665" height="52.147"/>
					<rect x="-43.718" y="374.225" style="fill:#D3D16C;" width="585.23" height="17.953"/>
					<rect x="-164.632" y="366.017" style="fill:#EFB84B;" width="748.665" height="8.208"/>
					<rect x="-164.632" y="302.473" style="fill:#FFFFCF;" width="748.665" height="11.397"/>
					<g>
						<path style="fill:#5E4E33;" d="M-128.394,339.073v-4.286h-2.905v-4.564c0-3.897-7.057-7.057-7.057-7.057
							s-7.057,3.16-7.057,7.057v4.564h-2.905v4.286l-1.7,1.54v25.405h1.7h19.925h1.7v-25.405L-128.394,339.073z"/>
						<path style="fill:#5E4E33;" d="M-100.506,339.073v-4.286h-2.905v-4.564c0-3.897-7.057-7.057-7.057-7.057
							s-7.057,3.16-7.057,7.057v4.564h-2.905v4.286l-1.7,1.54v25.405h1.7h19.924h1.7v-25.405L-100.506,339.073z"/>
						<path style="fill:#5E4E33;" d="M-72.618,339.073v-4.286h-2.905v-4.564c0-3.897-7.057-7.057-7.057-7.057
							s-7.057,3.16-7.057,7.057v4.564h-2.905v4.286l-1.7,1.54v25.405h1.7h19.924h1.7v-25.405L-72.618,339.073z"/>
						<path style="fill:#5E4E33;" d="M-44.729,339.073v-4.286h-2.905v-4.564c0-3.897-7.057-7.057-7.057-7.057
							s-7.057,3.16-7.057,7.057v4.564h-2.905v4.286l-1.7,1.54v25.405h1.7h19.924h1.7v-25.405L-44.729,339.073z"/>
						<path style="fill:#5E4E33;" d="M-16.841,339.073v-4.286h-2.905v-4.564c0-3.897-7.057-7.057-7.057-7.057
							s-7.057,3.16-7.057,7.057v4.564h-2.905v4.286l-1.7,1.54v25.405h1.7h19.925h1.7v-25.405L-16.841,339.073z"/>
						<path style="fill:#7A6649;" d="M11.048,339.073v-4.286H8.142v-4.564c0-3.897-7.057-7.057-7.057-7.057s-7.057,3.16-7.057,7.057
							v4.564h-2.905v4.286l-1.7,1.54v25.405h1.7h19.925h1.7v-25.405L11.048,339.073z"/>
						<path style="fill:#5E4E33;" d="M38.936,339.073v-4.286h-2.905v-4.564c0-3.897-7.057-7.057-7.057-7.057
							s-7.057,3.16-7.057,7.057v4.564h-2.905v4.286l-1.7,1.54v25.405h1.7h19.924h1.7v-25.405L38.936,339.073z"/>
						<path style="fill:#5E4E33;" d="M66.824,339.073v-4.286h-2.905v-4.564c0-3.897-7.057-7.057-7.057-7.057
							s-7.057,3.16-7.057,7.057v4.564H46.9v4.286l-1.7,1.54v25.405h1.7h19.924h1.7v-25.405L66.824,339.073z"/>
						<path style="fill:#5E4E33;" d="M94.713,339.073v-4.286h-2.905v-4.564c0-3.897-7.057-7.057-7.057-7.057
							s-7.057,3.16-7.057,7.057v4.564h-2.905v4.286l-1.7,1.54v25.405h1.7h19.924h1.7v-25.405L94.713,339.073z"/>
						<path style="fill:#5E4E33;" d="M122.601,339.073v-4.286h-2.905v-4.564c0-3.897-7.057-7.057-7.057-7.057
							s-7.057,3.16-7.057,7.057v4.564h-2.905v4.286l-1.7,1.54v25.405h1.7h19.925h1.7v-25.405L122.601,339.073z"/>
						<path style="fill:#5E4E33;" d="M150.489,339.073v-4.286h-2.905v-4.564c0-3.897-7.057-7.057-7.057-7.057
							s-7.057,3.16-7.057,7.057v4.564h-2.905v4.286l-1.7,1.54v25.405h1.7h19.924h1.7v-25.405L150.489,339.073z"/>
						<path style="fill:#5E4E33;" d="M178.378,339.073v-4.286h-2.905v-4.564c0-3.897-7.057-7.057-7.057-7.057
							s-7.057,3.16-7.057,7.057v4.564h-2.905v4.286l-1.7,1.54v25.405h1.7h19.924h1.7v-25.405L178.378,339.073z"/>
						<path style="fill:#5E4E33;" d="M206.266,339.073v-4.286h-2.905v-4.564c0-3.897-7.057-7.057-7.057-7.057
							s-7.057,3.16-7.057,7.057v4.564h-2.905v4.286l-1.7,1.54v25.405h1.7h19.924h1.7v-25.405L206.266,339.073z"/>
					</g>
					<g>
						<path style="fill:#5E4E33;" d="M-128.394,275.529v-4.286h-2.905v-4.564c0-3.898-7.057-7.057-7.057-7.057
							s-7.057,3.159-7.057,7.057v4.564h-2.905v4.286l-1.7,1.54v25.405h1.7h19.925h1.7v-25.405L-128.394,275.529z"/>
						<path style="fill:#5E4E33;" d="M-100.506,275.529v-4.286h-2.905v-4.564c0-3.898-7.057-7.057-7.057-7.057
							s-7.057,3.159-7.057,7.057v4.564h-2.905v4.286l-1.7,1.54v25.405h1.7h19.924h1.7v-25.405L-100.506,275.529z"/>
						<path style="fill:#5E4E33;" d="M-72.618,275.529v-4.286h-2.905v-4.564c0-3.898-7.057-7.057-7.057-7.057
							s-7.057,3.159-7.057,7.057v4.564h-2.905v4.286l-1.7,1.54v25.405h1.7h19.924h1.7v-25.405L-72.618,275.529z"/>
						<path style="fill:#5E4E33;" d="M-44.729,275.529v-4.286h-2.905v-4.564c0-3.898-7.057-7.057-7.057-7.057
							s-7.057,3.159-7.057,7.057v4.564h-2.905v4.286l-1.7,1.54v25.405h1.7h19.924h1.7v-25.405L-44.729,275.529z"/>
						<path style="fill:#5E4E33;" d="M-16.841,275.529v-4.286h-2.905v-4.564c0-3.898-7.057-7.057-7.057-7.057
							s-7.057,3.159-7.057,7.057v4.564h-2.905v4.286l-1.7,1.54v25.405h1.7h19.925h1.7v-25.405L-16.841,275.529z"/>
						<path style="fill:#5E4E33;" d="M11.048,275.529v-4.286H8.142v-4.564c0-3.898-7.057-7.057-7.057-7.057
							s-7.057,3.159-7.057,7.057v4.564h-2.905v4.286l-1.7,1.54v25.405h1.7h19.925h1.7v-25.405L11.048,275.529z"/>
						<path style="fill:#7A6649;" d="M38.936,275.529v-4.286h-2.905v-4.564c0-3.898-7.057-7.057-7.057-7.057
							s-7.057,3.159-7.057,7.057v4.564h-2.905v4.286l-1.7,1.54v25.405h1.7h19.924h1.7v-25.405L38.936,275.529z"/>
						<path style="fill:#5E4E33;" d="M66.824,275.529v-4.286h-2.905v-4.564c0-3.898-7.057-7.057-7.057-7.057
							s-7.057,3.159-7.057,7.057v4.564H46.9v4.286l-1.7,1.54v25.405h1.7h19.924h1.7v-25.405L66.824,275.529z"/>
						<path style="fill:#5E4E33;" d="M94.713,275.529v-4.286h-2.905v-4.564c0-3.898-7.057-7.057-7.057-7.057
							s-7.057,3.159-7.057,7.057v4.564h-2.905v4.286l-1.7,1.54v25.405h1.7h19.924h1.7v-25.405L94.713,275.529z"/>
						<path style="fill:#5E4E33;" d="M122.601,275.529v-4.286h-2.905v-4.564c0-3.898-7.057-7.057-7.057-7.057
							s-7.057,3.159-7.057,7.057v4.564h-2.905v4.286l-1.7,1.54v25.405h1.7h19.925h1.7v-25.405L122.601,275.529z"/>
						<path style="fill:#5E4E33;" d="M150.489,275.529v-4.286h-2.905v-4.564c0-3.898-7.057-7.057-7.057-7.057
							s-7.057,3.159-7.057,7.057v4.564h-2.905v4.286l-1.7,1.54v25.405h1.7h19.924h1.7v-25.405L150.489,275.529z"/>
						<path style="fill:#5E4E33;" d="M178.378,275.529v-4.286h-2.905v-4.564c0-3.898-7.057-7.057-7.057-7.057
							s-7.057,3.159-7.057,7.057v4.564h-2.905v4.286l-1.7,1.54v25.405h1.7h19.924h1.7v-25.405L178.378,275.529z"/>
						<path style="fill:#5E4E33;" d="M206.266,275.529v-4.286h-2.905v-4.564c0-3.898-7.057-7.057-7.057-7.057
							s-7.057,3.159-7.057,7.057v4.564h-2.905v4.286l-1.7,1.54v25.405h1.7h19.924h1.7v-25.405L206.266,275.529z"/>
					</g>
					<g>
						<path style="fill:#5E4E33;" d="M233.729,339.073v-4.286h-2.905v-4.564c0-3.897-7.057-7.057-7.057-7.057
							s-7.057,3.16-7.057,7.057v4.564h-2.905v4.286l-1.7,1.54v25.405h1.7h19.924h1.7v-25.405L233.729,339.073z"/>
						<path style="fill:#5E4E33;" d="M261.617,339.073v-4.286h-2.905v-4.564c0-3.897-7.057-7.057-7.057-7.057
							s-7.057,3.16-7.057,7.057v4.564h-2.905v4.286l-1.7,1.54v25.405h1.7h19.925h1.7v-25.405L261.617,339.073z"/>
						<path style="fill:#5E4E33;" d="M289.505,339.073v-4.286H286.6v-4.564c0-3.897-7.057-7.057-7.057-7.057
							s-7.057,3.16-7.057,7.057v4.564h-2.905v4.286l-1.7,1.54v25.405h1.7h19.924h1.7v-25.405L289.505,339.073z"/>
						<path style="fill:#7A6649;" d="M317.394,339.073v-4.286h-2.905v-4.564c0-3.897-7.057-7.057-7.057-7.057
							s-7.057,3.16-7.057,7.057v4.564h-2.905v4.286l-1.7,1.54v25.405h1.7h19.924h1.7v-25.405L317.394,339.073z"/>
						<path style="fill:#5E4E33;" d="M345.282,339.073v-4.286h-2.905v-4.564c0-3.897-7.057-7.057-7.057-7.057
							s-7.057,3.16-7.057,7.057v4.564h-2.905v4.286l-1.7,1.54v25.405h1.7h19.924h1.7v-25.405L345.282,339.073z"/>
						<path style="fill:#5E4E33;" d="M373.171,339.073v-4.286h-2.905v-4.564c0-3.897-7.057-7.057-7.057-7.057
							s-7.057,3.16-7.057,7.057v4.564h-2.905v4.286l-1.7,1.54v25.405h1.7h19.925h1.7v-25.405L373.171,339.073z"/>
						<path style="fill:#5E4E33;" d="M401.059,339.073v-4.286h-2.905v-4.564c0-3.897-7.057-7.057-7.057-7.057
							s-7.057,3.16-7.057,7.057v4.564h-2.905v4.286l-1.7,1.54v25.405h1.7h19.924h1.7v-25.405L401.059,339.073z"/>
						<path style="fill:#5E4E33;" d="M428.947,339.073v-4.286h-2.905v-4.564c0-3.897-7.057-7.057-7.057-7.057
							s-7.057,3.16-7.057,7.057v4.564h-2.905v4.286l-1.7,1.54v25.405h1.7h19.924h1.7v-25.405L428.947,339.073z"/>
						<path style="fill:#5E4E33;" d="M456.836,339.073v-4.286h-2.905v-4.564c0-3.897-7.057-7.057-7.057-7.057
							s-7.057,3.16-7.057,7.057v4.564h-2.905v4.286l-1.7,1.54v25.405h1.7h19.924h1.7v-25.405L456.836,339.073z"/>
						<path style="fill:#7A6649;" d="M484.724,339.073v-4.286h-2.905v-4.564c0-3.897-7.057-7.057-7.057-7.057
							s-7.057,3.16-7.057,7.057v4.564h-2.905v4.286l-1.7,1.54v25.405h1.7h19.924h1.7v-25.405L484.724,339.073z"/>
						<path style="fill:#5E4E33;" d="M512.612,339.073v-4.286h-2.905v-4.564c0-3.897-7.057-7.057-7.057-7.057
							s-7.057,3.16-7.057,7.057v4.564h-2.905v4.286l-1.7,1.54v25.405h1.7h19.925h1.7v-25.405L512.612,339.073z"/>
						<path style="fill:#5E4E33;" d="M540.501,339.073v-4.286h-2.905v-4.564c0-3.897-7.057-7.057-7.057-7.057
							s-7.057,3.16-7.057,7.057v4.564h-2.905v4.286l-1.7,1.54v25.405h1.7h19.924h1.7v-25.405L540.501,339.073z"/>
						<path style="fill:#5E4E33;" d="M568.389,339.073v-4.286h-2.905v-4.564c0-3.897-7.057-7.057-7.057-7.057
							s-7.057,3.16-7.057,7.057v4.564h-2.905v4.286l-1.7,1.54v25.405h1.7h19.924h1.7v-25.405L568.389,339.073z"/>
					</g>
					<g>
						<path style="fill:#7A6649;" d="M233.729,275.529v-4.286h-2.905v-4.564c0-3.898-7.057-7.057-7.057-7.057
							s-7.057,3.159-7.057,7.057v4.564h-2.905v4.286l-1.7,1.54v25.405h1.7h19.924h1.7v-25.405L233.729,275.529z"/>
						<path style="fill:#5E4E33;" d="M261.617,275.529v-4.286h-2.905v-4.564c0-3.898-7.057-7.057-7.057-7.057
							s-7.057,3.159-7.057,7.057v4.564h-2.905v4.286l-1.7,1.54v25.405h1.7h19.925h1.7v-25.405L261.617,275.529z"/>
						<path style="fill:#7A6649;" d="M289.505,275.529v-4.286H286.6v-4.564c0-3.898-7.057-7.057-7.057-7.057
							s-7.057,3.159-7.057,7.057v4.564h-2.905v4.286l-1.7,1.54v25.405h1.7h19.924h1.7v-25.405L289.505,275.529z"/>
						<path style="fill:#5E4E33;" d="M317.394,275.529v-4.286h-2.905v-4.564c0-3.898-7.057-7.057-7.057-7.057
							s-7.057,3.159-7.057,7.057v4.564h-2.905v4.286l-1.7,1.54v25.405h1.7h19.924h1.7v-25.405L317.394,275.529z"/>
						<path style="fill:#5E4E33;" d="M345.282,275.529v-4.286h-2.905v-4.564c0-3.898-7.057-7.057-7.057-7.057
							s-7.057,3.159-7.057,7.057v4.564h-2.905v4.286l-1.7,1.54v25.405h1.7h19.924h1.7v-25.405L345.282,275.529z"/>
						<path style="fill:#5E4E33;" d="M373.171,275.529v-4.286h-2.905v-4.564c0-3.898-7.057-7.057-7.057-7.057
							s-7.057,3.159-7.057,7.057v4.564h-2.905v4.286l-1.7,1.54v25.405h1.7h19.925h1.7v-25.405L373.171,275.529z"/>
						<path style="fill:#5E4E33;" d="M401.059,275.529v-4.286h-2.905v-4.564c0-3.898-7.057-7.057-7.057-7.057
							s-7.057,3.159-7.057,7.057v4.564h-2.905v4.286l-1.7,1.54v25.405h1.7h19.924h1.7v-25.405L401.059,275.529z"/>
						<path style="fill:#5E4E33;" d="M428.947,275.529v-4.286h-2.905v-4.564c0-3.898-7.057-7.057-7.057-7.057
							s-7.057,3.159-7.057,7.057v4.564h-2.905v4.286l-1.7,1.54v25.405h1.7h19.924h1.7v-25.405L428.947,275.529z"/>
						<path style="fill:#5E4E33;" d="M456.836,275.529v-4.286h-2.905v-4.564c0-3.898-7.057-7.057-7.057-7.057
							s-7.057,3.159-7.057,7.057v4.564h-2.905v4.286l-1.7,1.54v25.405h1.7h19.924h1.7v-25.405L456.836,275.529z"/>
						<path style="fill:#5E4E33;" d="M484.724,275.529v-4.286h-2.905v-4.564c0-3.898-7.057-7.057-7.057-7.057
							s-7.057,3.159-7.057,7.057v4.564h-2.905v4.286l-1.7,1.54v25.405h1.7h19.924h1.7v-25.405L484.724,275.529z"/>
						<path style="fill:#7A6649;" d="M512.612,275.529v-4.286h-2.905v-4.564c0-3.898-7.057-7.057-7.057-7.057
							s-7.057,3.159-7.057,7.057v4.564h-2.905v4.286l-1.7,1.54v25.405h1.7h19.925h1.7v-25.405L512.612,275.529z"/>
						<path style="fill:#5E4E33;" d="M540.501,275.529v-4.286h-2.905v-4.564c0-3.898-7.057-7.057-7.057-7.057
							s-7.057,3.159-7.057,7.057v4.564h-2.905v4.286l-1.7,1.54v25.405h1.7h19.924h1.7v-25.405L540.501,275.529z"/>
						<path style="fill:#5E4E33;" d="M568.389,275.529v-4.286h-2.905v-4.564c0-3.898-7.057-7.057-7.057-7.057
							s-7.057,3.159-7.057,7.057v4.564h-2.905v4.286l-1.7,1.54v25.405h1.7h19.924h1.7v-25.405L568.389,275.529z"/>
					</g>
				</g>
				<g>
					<g>
						<rect x="151.831" y="215.996" style="fill:#EBF08D;" width="23.121" height="19.006"/>
						<g>
							<rect x="148.362" y="184.903" style="fill:#FFFFCF;" width="30.352" height="23.844"/>
							<polygon style="fill:#EFB84B;" points="178.714,208.747 148.362,208.747 151.978,215.996 175.099,215.996 							"/>
							<g>
								<rect x="150.015" y="192.496" style="fill:#EFB84B;" width="7.972" height="8.659"/>
								<rect x="159.405" y="192.496" style="fill:#EFB84B;" width="7.972" height="8.659"/>
								<rect x="168.796" y="192.496" style="fill:#EFB84B;" width="7.972" height="8.659"/>
							</g>
							<g>
								<polygon style="fill:#EFB84B;" points="148.362,184.903 142.675,181.65 154.001,177.673 163.391,177.673 163.391,184.903 
																	"/>
								<polygon style="fill:#EBF08D;" points="142.675,181.65 163.391,181.65 163.391,184.903 148.362,184.903 								"/>
							</g>
							<g>
								<polygon style="fill:#EFB84B;" points="178.42,184.903 184.108,181.65 172.782,177.673 163.391,177.673 163.391,184.903 
																	"/>
								<polygon style="fill:#EBF08D;" points="184.108,181.65 163.391,181.65 163.391,184.903 178.42,184.903 								"/>
							</g>
						</g>
						<rect x="154.001" y="107.177" style="fill:#EBF08D;" width="18.782" height="70.496"/>
						<rect x="154.001" y="107.177" style="fill:#E0E07E;" width="9.391" height="70.496"/>
						<g>
							<rect x="149.909" y="91.962" style="fill:#FFFFCF;" width="27.065" height="21.262"/>
							<polygon style="fill:#EFB84B;" points="176.974,113.224 149.909,113.224 154.001,119.687 172.782,119.687 							"/>
							<g>
								<rect x="151.382" y="98.732" style="fill:#EFB84B;" width="7.109" height="7.722"/>
								<rect x="159.756" y="98.732" style="fill:#EFB84B;" width="7.109" height="7.722"/>
								<rect x="168.13" y="98.732" style="fill:#EFB84B;" width="7.109" height="7.722"/>
							</g>
							<g>
								<polygon style="fill:#EFB84B;" points="149.909,91.962 144.837,89.06 156.727,85.514 163.311,85.514 163.311,91.962 
																	"/>
								<polygon style="fill:#EBF08D;" points="144.837,89.06 163.311,89.06 163.311,91.962 149.909,91.962 								"/>
							</g>
							<g>
								<polygon style="fill:#EFB84B;" points="176.712,91.962 181.784,89.06 170.103,85.514 163.311,85.514 163.311,91.962 
																	"/>
								<polygon style="fill:#EBF08D;" points="181.784,89.06 163.311,89.06 163.311,91.962 176.712,91.962 								"/>
							</g>
						</g>
						<g>
							<g>
								<path style="fill:#EFB84B;" d="M163.468,66.819c-0.574,0-1.04-0.466-1.04-1.04v-21.03c0-0.575,0.466-1.04,1.04-1.04
									s1.04,0.465,1.04,1.04v21.03C164.508,66.354,164.042,66.819,163.468,66.819z"/>
							</g>
							<path style="fill:#EBF08D;" d="M165.447,72.137h-4.065c-2.571,0-4.656,2.084-4.656,4.656v8.721h13.376v-8.721
								C170.103,74.222,168.019,72.137,165.447,72.137z"/>
							<path style="fill:#EFB84B;" d="M165.418,59.091h-3.899c-2.617,0-4.739,2.122-4.739,4.739v3.982
								c0,2.571,2.084,4.656,4.656,4.656h4.065c2.571,0,4.656-2.084,4.656-4.656v-3.982
								C170.156,61.212,168.035,59.091,165.418,59.091z"/>
						</g>
					</g>
					<g>
						<rect x="319.298" y="215.996" style="fill:#EBF08D;" width="23.121" height="19.006"/>
						<g>
							<rect x="315.829" y="184.903" style="fill:#FFFFCF;" width="30.351" height="23.844"/>
							<polygon style="fill:#EFB84B;" points="346.181,208.747 315.829,208.747 319.445,215.996 342.566,215.996 							"/>
							<g>
								<rect x="317.482" y="192.496" style="fill:#EFB84B;" width="7.972" height="8.659"/>
								<rect x="326.872" y="192.496" style="fill:#EFB84B;" width="7.972" height="8.659"/>
								<rect x="336.263" y="192.496" style="fill:#EFB84B;" width="7.972" height="8.659"/>
							</g>
							<g>
								<polygon style="fill:#EFB84B;" points="315.829,184.903 310.142,181.65 321.468,177.673 330.858,177.673 330.858,184.903 
																	"/>
								<polygon style="fill:#EBF08D;" points="310.142,181.65 330.858,181.65 330.858,184.903 315.829,184.903 								"/>
							</g>
							<g>
								<polygon style="fill:#EFB84B;" points="345.887,184.903 351.575,181.65 340.249,177.673 330.858,177.673 330.858,184.903 
																	"/>
								<polygon style="fill:#EBF08D;" points="351.575,181.65 330.858,181.65 330.858,184.903 345.887,184.903 								"/>
							</g>
						</g>
						<rect x="321.468" y="107.177" style="fill:#EBF08D;" width="18.782" height="70.496"/>
						<rect x="321.468" y="107.177" style="fill:#E0E07E;" width="6.852" height="70.496"/>
						<g>
							<rect x="317.376" y="91.962" style="fill:#FFFFCF;" width="27.065" height="21.262"/>
							<polygon style="fill:#EFB84B;" points="344.441,113.224 317.376,113.224 321.468,119.687 340.249,119.687 							"/>
							<g>
								<rect x="318.849" y="98.732" style="fill:#EFB84B;" width="7.109" height="7.722"/>
								<rect x="327.223" y="98.732" style="fill:#EFB84B;" width="7.109" height="7.722"/>
								<rect x="335.597" y="98.732" style="fill:#EFB84B;" width="7.109" height="7.722"/>
							</g>
							<g>
								<polygon style="fill:#EFB84B;" points="317.376,91.962 312.304,89.06 324.194,85.514 330.778,85.514 330.778,91.962 
																	"/>
								<polygon style="fill:#EBF08D;" points="312.304,89.06 330.778,89.06 330.778,91.962 317.376,91.962 								"/>
							</g>
							<g>
								<polygon style="fill:#EFB84B;" points="344.179,91.962 349.251,89.06 337.57,85.514 330.778,85.514 330.778,91.962 								
									"/>
								<polygon style="fill:#EBF08D;" points="349.251,89.06 330.778,89.06 330.778,91.962 344.179,91.962 								"/>
							</g>
						</g>
						<g>
							<g>
								<path style="fill:#EFB84B;" d="M330.935,66.819c-0.574,0-1.04-0.466-1.04-1.04v-21.03c0-0.575,0.466-1.04,1.04-1.04
									s1.04,0.465,1.04,1.04v21.03C331.975,66.354,331.509,66.819,330.935,66.819z"/>
							</g>
							<path style="fill:#EBF08D;" d="M332.914,72.137h-4.065c-2.571,0-4.656,2.084-4.656,4.656v8.721h13.376v-8.721
								C337.57,74.222,335.486,72.137,332.914,72.137z"/>
							<path style="fill:#EFB84B;" d="M332.885,59.091h-3.899c-2.617,0-4.738,2.122-4.738,4.739v3.982
								c0,2.571,2.084,4.656,4.656,4.656h4.065c2.571,0,4.656-2.084,4.656-4.656v-3.982
								C337.623,61.212,335.502,59.091,332.885,59.091z"/>
						</g>
					</g>
				</g>
			</g>
			<g>
				<path style="fill:#D3D16C;" d="M335.32,409.205c0,3.935-36.978,7.126-82.593,7.126c-45.615,0-82.593-3.19-82.593-7.126
					c0-3.935,36.978-7.126,82.593-7.126C298.341,402.079,335.32,405.269,335.32,409.205z"/>
				<g>
					<rect x="190.52" y="280.23" style="fill:#0D3341;" width="119.941" height="127.992"/>
					<rect x="190.52" y="280.23" style="fill:#0A2C35;" width="63.008" height="127.992"/>
					<rect x="190.52" y="280.23" style="fill:#082228;" width="14.496" height="127.992"/>
					<rect x="190.52" y="394.574" style="fill:#2B2B25;" width="119.941" height="13.649"/>
					<rect x="190.52" y="401.398" style="fill:#191916;" width="119.941" height="6.824"/>
					<rect x="190.52" y="296.066" style="fill:#FECD51;" width="119.941" height="10.52"/>
					<rect x="190.52" y="296.066" style="fill:#F2B836;" width="63.008" height="10.52"/>
					<rect x="190.52" y="296.066" style="fill:#DBA12C;" width="14.496" height="10.52"/>
					<rect x="190.52" y="310.173" style="fill:#F2B836;" width="17.762" height="4.065"/>
					<rect x="190.52" y="310.173" style="fill:#DBA12C;" width="14.496" height="4.065"/>
					<rect x="213.121" y="310.173" style="fill:#F2B836;" width="4.065" height="4.065"/>
					<rect x="222.24" y="310.173" style="fill:#F2B836;" width="17.762" height="4.065"/>
					<rect x="244.841" y="310.173" style="fill:#F2B836;" width="4.065" height="4.065"/>
					<rect x="253.96" y="310.173" style="fill:#FECD51;" width="17.762" height="4.065"/>
					<rect x="276.562" y="310.173" style="fill:#FECD51;" width="4.065" height="4.065"/>
					<rect x="285.68" y="310.173" style="fill:#FECD51;" width="17.762" height="4.065"/>
					<rect x="308.282" y="310.173" style="fill:#FECD51;" width="2.18" height="4.065"/>
				</g>
			</g>
		</g>
		<g style="clip-path:url(#SVGID_00000028301772364308534250000011793037732146421158_);">
			<g>
				<path style="fill:#F4F2F2;" d="M487.08,518.183c-6.904,9.633-17.399,6.939-30.81,3.755c-7.93-1.889-148.769,1.982-148.746,0.396
					c0.462-22.84,7.958-50.281,11.325-77.101c3.205-25.528-0.788-52.701,4.151-73.234c5.081-21.123,0.5-37.566,0.244-48.497
					c-1.131-48.7,8.408-89.726,10.286-92.151c2.927-3.779,35.743-22.752,33.947-16.688c-4.875,16.431-6.379,33.516,3.883,48.35
					c10.799,15.615,31.09-50.181,48.956-43.767c4.746,1.703,23.685,3.627,25.773,8.21c7.86,17.225,10.321,78.985,10.81,94.215
					c0.058,1.854,0.093,3.009,0.105,3.324C458.544,377.509,483.197,452.878,487.08,518.183z"/>
				<g>
					<path style="fill:#E8E6E6;" d="M362.78,286.2c4.393,2.227,8.787,4.454,13.18,6.681c1.227,0.622,2.312-1.226,1.081-1.85
						c-4.393-2.227-8.787-4.454-13.18-6.681C362.634,283.729,361.549,285.576,362.78,286.2L362.78,286.2z"/>
				</g>
				<path style="fill:#E5DCDC;" d="M487.08,518.183c-6.904,9.633-17.399,6.939-30.81,3.755c5.014-6.286,9.248-33.27,10.566-41.106
					c0.746-4.466,0.49-9.026,0.221-13.551c-0.688-11.604-1.539-23.533-6.577-34.017c-1.248-2.577-2.741-5.085-3.37-7.872
					c-1.154-5.213,0.863-10.531,1.714-15.79c1.469-9.178-0.805-18.892-6.204-26.449c-1.948-2.74-4.385-5.481-4.49-8.828
					c-0.105-3.219,1.994-6.041,3.032-9.096c1.866-5.434,0.21-11.114-2.216-16.082c-2.589-5.283-6.379-7.778-9.808-12.256
					c7.067-3.487,13.213-8.781,17.761-15.219c0.058,1.854,0.093,3.009,0.105,3.324C458.544,377.509,483.197,452.878,487.08,518.183z
					"/>
				<path style="fill:#E8E6E6;" d="M350.146,336.278c10.63-8.011,22.547-17.407,35.657-15.099
					c5.842,1.029,10.988,4.319,16.147,7.246c8.425,4.778,17.31,8.744,26.493,11.826c9.115,3.059,20.672,4.641,27.026-2.574
					c2.581-2.931,3.747-6.811,4.843-10.56c2.074-7.097,4.059-15.119,0.414-21.552c-7.058,5.833-15.272,10.262-24.024,12.952
					c-5.809,1.786-11.956,2.812-17.978,1.993c-12.356-1.681-22.227-10.64-32.76-17.314c-6.584-4.172-15.374-7.479-21.823-3.102
					c-3.279,2.226-5.121,5.96-7.392,9.208c-8.965,12.821-24.55,1.371-33.5,14.203C317.562,331.658,336.1,346.863,350.146,336.278z"
					/>
				<path style="fill:#F4F2F2;" d="M466.004,301.106c0.061,5.456-2.341,14.402-4.226,19.523c-1.885,5.12-5.74,9.782-10.961,11.364
					c-4.265,1.292-8.883,0.421-13.134-0.917c-3.201-1.007-6.392-2.317-8.885-4.563c-5.534-4.985-6.393-13.208-6.886-20.64
					c-1.017-15.335-2.033-30.671-3.05-46.006c-0.464-7.001-0.357-15.29,5.349-19.374c10.932-7.824,28.462-0.128,32.574,11.5
					C462.387,267.84,465.817,284.469,466.004,301.106z"/>
				<path style="fill:#F4F2F2;" d="M309.713,297.596c-0.914,3.915-1.664,8.485,0.909,11.574c1.549,1.861,3.975,2.716,6.31,3.356
					c5.324,1.459,10.835,2.232,16.355,2.292c5.187,0.057,10.923-0.785,14.289-4.731c2.091-2.452,2.91-5.712,3.667-8.845
					c2.841-11.765,5.69-23.577,6.855-35.624c0.259-2.677,0.208-5.872-1.995-7.416c-1.03-0.722-2.331-0.908-3.579-1.071
					c-9.407-1.232-28.296-19.551-32.38-8.952c-1.669,4.331-4.029,22.002-4.865,26.779
					C313.952,282.546,311.467,290.083,309.713,297.596z"/>
				<g>
					<path style="fill:#E8E6E6;" d="M347.231,355.351c23.436-17.678,53.314-2.068,78.422,2.238c1.348,0.231,1.927-1.833,0.569-2.066
						c-25.667-4.401-56.106-20.099-80.072-2.022C345.063,354.322,346.129,356.182,347.231,355.351L347.231,355.351z"/>
				</g>
				<g>
					<path style="fill:#E8E6E6;" d="M354.83,375.845c8.893,11.641,15.731,24.66,25.052,36.004
						c9.051,11.016,19.61,20.641,31.231,28.88c1.127,0.799,2.198-1.058,1.081-1.85c-11.475-8.135-21.853-17.681-30.797-28.545
						c-9.215-11.194-15.935-24.075-24.717-35.571C355.854,373.683,353.993,374.749,354.83,375.845L354.83,375.845z"/>
				</g>
				<g>
					<path style="fill:#E8E6E6;" d="M377.272,378.275c9.941,13.54,23.491,23.535,39.378,29.001c1.306,0.449,1.867-1.619,0.57-2.066
						c-15.316-5.269-28.511-14.957-38.098-28.016C378.315,376.094,376.455,377.161,377.272,378.275L377.272,378.275z"/>
				</g>
				<g>
					<path style="fill:#E8E6E6;" d="M343.011,392.554c9.348,22.578,9.48,47.129,9.367,71.18c-0.007,1.379,2.136,1.38,2.142,0
						c0.114-24.229-0.025-49.003-9.443-71.749C344.556,390.729,342.483,391.28,343.011,392.554L343.011,392.554z"/>
				</g>
				<g>
					<path style="fill:#E8E6E6;" d="M380.942,439.52c3.147,7.973,6.54,15.835,10.187,23.592c0.586,1.247,2.433,0.16,1.85-1.081
						c-3.568-7.589-6.892-15.279-9.971-23.08C382.508,437.683,380.435,438.235,380.942,439.52L380.942,439.52z"/>
				</g>
			</g>
			<g>
				<path style="fill:#FFFFFF;" d="M469.984,298.022c-1.749,3.802-7.16,2.496-14.192-0.98c-16.35-8.093-41.469-27.977-49.726-22.822
					c-11.813,7.37-29.983,0.128-42.589-5.761c-13.644-6.379-49.866,37.294-55.953,23.533c-0.875-2.006,5.539-44.77,18.88-60.641
					c6.332-7.545,32.592-15.973,33.983-22.787c0.525-2.571-3.571-11.776-5.05-31.324c-2.337-30.908,10.985-47.044,41.971-44.711
					c13.983,1.061,28.198,16.327,27.802,37.726c-0.198,10.997-5.878,32.63-3.767,37.131c1.073,2.286,9.551,5.819,17.796,9.913
					c7.265,3.615,14.356,7.673,16.07,11.72C456.573,232.227,473.238,290.967,469.984,298.022z"/>
				<path style="fill:#F4F2F2;" d="M365.617,196.825c0,0,4.243,18.175,18.48,17.508c14.237-0.667,25.121-15.792,25.339-29.43
					c0.217-13.638-10.769-16.882-10.769-16.882S360.514,172.039,365.617,196.825z"/>
				<path style="fill:#F99282;" d="M398.865,201.699c-2.754,2.404-13.556,7.86-18.004,7.414
					c-5.939-0.596-15.039-8.261-18.836-26.853c-1.069-5.235-1.427-12.208,1.494-21.691c1.88-6.105,12.697-9.13,19.039-9.575
					c16.943-1.19,27.111,7.135,27.223,23.014C409.882,188.382,409.481,192.43,398.865,201.699z"/>
				<g>
					<path style="fill:#E06F69;" d="M376.804,169.863c0.664,5.647-0.137,11.133-2.48,16.322c-0.422,0.935,0.962,1.753,1.387,0.811
						c2.463-5.453,3.398-11.186,2.699-17.133C378.291,168.848,376.683,168.836,376.804,169.863L376.804,169.863z"/>
				</g>
				<g>
					<path style="fill:#FFFFFF;" d="M399.051,183.037c3.969-0.416,7.904-1.022,11.814-1.825c0.675-0.139,0.389-1.171-0.285-1.033
						c-3.816,0.783-7.655,1.38-11.529,1.786C398.372,182.037,398.365,183.109,399.051,183.037L399.051,183.037z"/>
				</g>
				<path style="fill:#54D5B9;" d="M361.666,180.241c0,0,26.203-5.097,39.146,1.822c0,0-1,8.688,2.375,15.438
					c0,0-9.999,12.32-19.362,12.883c-5.589,0.336-9.604-1.514-13.529-5.507C367.363,201.891,363.766,194.971,361.666,180.241z"/>
				<path style="fill:#592616;" d="M370.876,172.024c0,1.683-0.868,3.048-1.94,3.048c-1.071,0-1.94-1.365-1.94-3.048
					s0.868-3.048,1.94-3.048C370.008,168.977,370.876,170.341,370.876,172.024z"/>
				<ellipse style="fill:#592616;" cx="388.925" cy="172.024" rx="1.94" ry="3.048"/>
				<g>
					<path style="fill:#F4F2F2;" d="M366.151,210.883c7.977,6.827,18.274,12.162,28.44,6.572c1.208-0.664,0.129-2.515-1.081-1.85
						c-9.243,5.082-18.682-0.107-25.844-6.237C366.624,208.477,365.102,209.985,366.151,210.883L366.151,210.883z"/>
				</g>
				<g>
					<path style="fill:#F4F2F2;" d="M366.463,220.341c5.164,5.569,12.735,11.893,20.617,12.675
						c7.951,0.788,16.227-6.483,21.661-11.514c1.014-0.939-0.504-2.451-1.515-1.515c-5.07,4.695-13.439,11.946-20.833,10.698
						c-7.112-1.201-13.662-6.73-18.416-11.858C367.039,217.814,365.527,219.331,366.463,220.341L366.463,220.341z"/>
				</g>
				<g>
					<path style="fill:#F4F2F2;" d="M406.683,210.165c3.669-2.291,6.333-5.642,7.768-9.719c0.459-1.303-1.61-1.863-2.066-0.57
						c-1.245,3.537-3.606,6.455-6.784,8.439C404.435,209.044,405.509,210.898,406.683,210.165L406.683,210.165z"/>
				</g>
				<g>
					<path style="fill:#F4F2F2;" d="M379.096,147.778c8.259-1.858,16.372-0.101,23.194,4.89c1.114,0.815,2.184-1.043,1.081-1.85
						c-7.272-5.32-16.068-7.08-24.845-5.106C377.183,146.015,377.751,148.081,379.096,147.778L379.096,147.778z"/>
				</g>
				<g>
					<path style="fill:#F4F2F2;" d="M392.976,142.842c3.499,1.425,6.997,2.85,10.496,4.275c1.276,0.52,1.831-1.552,0.569-2.066
						c-3.499-1.425-6.997-2.85-10.496-4.275C392.269,140.256,391.714,142.328,392.976,142.842L392.976,142.842z"/>
				</g>
				<g>
					<path style="fill:#F4F2F2;" d="M399.956,140.18c1.274,1.063,2.549,2.125,3.823,3.187c1.052,0.877,2.575-0.631,1.515-1.515
						c-1.274-1.062-2.548-2.125-3.823-3.187C400.419,137.789,398.896,139.296,399.956,140.18L399.956,140.18z"/>
				</g>
				<g>
					<path style="fill:#F4F2F2;" d="M399.022,266.229c8.363-3.387,16.17-5.548,25.01-2.359c7.034,2.538,13.318,6.804,20.235,9.636
						c1.275,0.522,1.83-1.549,0.569-2.065c-7.909-3.238-15.08-8.513-23.434-10.639c-8.085-2.058-15.434,0.318-22.95,3.362
						C397.191,264.674,397.742,266.747,399.022,266.229L399.022,266.229z"/>
				</g>
				<g>
					<path style="fill:#F4F2F2;" d="M415.006,251.357c6.879-0.108,13.306,1.539,19.278,4.952c1.199,0.685,2.279-1.165,1.081-1.85
						c-6.275-3.586-13.133-5.357-20.359-5.244C413.629,249.237,413.624,251.379,415.006,251.357L415.006,251.357z"/>
				</g>
				<g>
					<path style="fill:#F4F2F2;" d="M420.981,239.94c2.839,0.819,5.677,1.638,8.516,2.457c1.327,0.383,1.894-1.683,0.569-2.066
						c-2.839-0.819-5.677-1.638-8.516-2.457C420.224,237.492,419.657,239.558,420.981,239.94L420.981,239.94z"/>
				</g>
				<g>
					<path style="fill:#F4F2F2;" d="M330.282,244.413c-3.691,8.628-1.998,18.291,4.547,25.058c0.96,0.993,2.474-0.523,1.515-1.515
						c-5.822-6.019-7.519-14.73-4.212-22.462C332.668,244.24,330.823,243.148,330.282,244.413L330.282,244.413z"/>
				</g>
				<g>
					<path style="fill:#F4F2F2;" d="M341.303,236.995c0.663,4.562,2.25,8.83,4.703,12.73c0.732,1.164,2.586,0.09,1.85-1.081
						c-2.37-3.768-3.848-7.817-4.487-12.218C343.171,235.066,341.106,235.644,341.303,236.995L341.303,236.995z"/>
				</g>
				<g>
					<path style="fill:#F4F2F2;" d="M353.753,233.1c0.401,1.292,0.803,2.584,1.204,3.875c0.408,1.312,2.476,0.752,2.066-0.569
						c-0.402-1.292-0.803-2.584-1.204-3.876C355.411,231.219,353.342,231.779,353.753,233.1L353.753,233.1z"/>
				</g>
				<g>
					<path style="fill:#592616;" d="M365.111,163.613c2.022-1.207,4.048-1.428,6.354-1.412c0.689,0.005,0.69-1.066,0-1.071
						c-2.488-0.017-4.721,0.261-6.894,1.559C363.979,163.042,364.517,163.968,365.111,163.613L365.111,163.613z"/>
				</g>
				<g>
					<path style="fill:#592616;" d="M385.618,161.492c2.838-0.457,5.603,0.067,8.095,1.49c0.599,0.342,1.14-0.583,0.54-0.925
						c-2.756-1.574-5.791-2.103-8.92-1.598C384.655,160.569,384.943,161.601,385.618,161.492L385.618,161.492z"/>
				</g>
				<g>
					<path style="fill:#48BCA0;" d="M368.503,186.365c7.579-1.027,15.436-1.602,23.04-0.529c0.674,0.095,0.966-0.937,0.285-1.033
						c-7.813-1.102-15.823-0.526-23.609,0.529C367.539,185.425,367.828,186.457,368.503,186.365L368.503,186.365z"/>
				</g>
				<g>
					<path style="fill:#48BCA0;" d="M372.22,192.704c5.817-0.631,11.672-0.538,17.509-0.305c0.689,0.027,0.688-1.044,0-1.071
						c-5.838-0.233-11.692-0.326-17.509,0.305C371.542,191.707,371.535,192.778,372.22,192.704L372.22,192.704z"/>
				</g>
				<g>
					<path style="fill:#48BCA0;" d="M377.442,199.517c3.432-0.641,6.867-0.883,10.354-0.75c0.689,0.026,0.688-1.045,0-1.071
						c-3.583-0.137-7.116,0.131-10.639,0.788C376.48,198.611,376.767,199.643,377.442,199.517L377.442,199.517z"/>
				</g>
				<g>
					<path style="fill:#FFFFFF;" d="M361.809,180.757c9.288-1.628,18.73-2.561,28.127-1.326c2.277,0.299,4.533,0.716,6.767,1.248
						c1.422,0.339,3.174,0.505,3.654,2.348c0.22,0.844-0.236,2.247-0.26,3.144c-0.109,3.994,0.843,7.832,2.583,11.41
						c0.301,0.62,1.225,0.077,0.925-0.54c-1.315-2.704-2.16-5.557-2.389-8.564c-0.145-1.909,0.753-4.711,0.057-6.48
						c-0.438-1.114-1.527-1.58-2.59-1.916c-2.453-0.775-5.086-1.202-7.627-1.573c-9.859-1.44-19.774-0.494-29.533,1.216
						C360.846,179.843,361.133,180.875,361.809,180.757L361.809,180.757z"/>
				</g>
				<path style="fill:#E8E6E6;" d="M469.984,298.022c-1.749,3.802-7.16,2.496-14.192-0.98c10.647-4.21-14.741-17.376-0.945-14.379
					c13.784,2.997,0.781-20.49-3.848-38.915s-11.86-26.449-11.86-26.449c7.265,3.615,14.356,7.673,16.07,11.72
					C456.573,232.227,473.238,290.967,469.984,298.022z"/>
			</g>
			<g>
				<path style="fill:#F99282;" d="M408.682,319.365c-12.848-8.544-20.381-25.441-32.159-35.408
					c-11.678-9.883-14.962-30.141-10.107-32.551c1.207-0.599-0.143-4.456,1.063-5.103c2.63-1.411,4.039,1.423,4.039,1.423
					c0-2.91,4.427-0.268,4.982,3.68c0.924,6.569,2.844,8.891,6.788,13.854c1.981,1.579-2.808-8.426,4.508-9.305
					c-0.823,5.442,1.749,8.552,2.355,9.952c1.378,3.188,1.853,9.597,0.949,11.622c0,0,6.515,6.499,9.025,8.899
					c5.783,5.531,11.606,6.148,19.179,8.733c10.17,3.471,29.461,12.812,23.247,27.175
					C436.81,335.603,416.445,324.528,408.682,319.365z"/>
				<path style="fill:#F99282;" d="M323.249,323.504c3.164,0.422,6.228-1.206,8.84-3.041c15.771-11.077,28.482-40.729,29.244-41.574
					c8.582-9.524,8.282-21.691,8.193-29.858c-0.022-2.038-3.355-2.754-5.817,0c0,0-3.36-0.804-4.29,2.374
					c-1.491,5.094-4.153,8.695-8.358,11.935c0.87-3.322,3.724-7.175-0.759-9.946c-1.572,5.759-4.971,9.086-4.93,11.682
					c0.147,9.444-0.313,12.944-6.833,20.322c-6.026,6.819-14.226,5.532-21.707,9.289
					C301.33,302.473,306.388,321.256,323.249,323.504z"/>
				<path style="fill:#F4F2F2;" d="M435.936,291.884c-3.81-1.818-7.982-2.718-12.109-3.604c-6.684-1.434-22.284-4.752-23.27-4.278
					c-1.772,0.852-13.212,16.357-16.272,23.027c-1.247,2.719,6.988,9.289,7.988,12.109c0.736,2.075,2.668,3.452,4.525,4.635
					c7.315,4.661,15.188,8.446,23.397,11.249c5.836,1.993,11.978,3.503,18.123,2.988c6.146-0.515,12.339-3.319,15.759-8.452
					C466.159,311.42,451.556,299.336,435.936,291.884z"/>
				<path style="fill:#F4F2F2;" d="M354.254,291.265c-7.441-4.017-14.297-9.758-20.721-11.409c-3.3-0.848-22.186,15.563-23.82,17.74
					c-9.994,13.322-7.532,24.377-4.768,28.595c2.473,3.773,6.715,6.109,11.102,7.161c4.386,1.052,8.958,0.955,13.465,0.763
					c3.342-0.142,6.769-0.353,9.824-1.715c5.763-2.569,9.027-8.607,11.875-14.237c1.651-3.263,3.302-6.527,4.953-9.79
					c0.834-1.649,1.685-3.358,1.786-5.203C358.227,298.092,358.727,293.68,354.254,291.265z"/>
				<g>
					<path style="fill:#E06F69;" d="M365.848,250.838c-3.71,4.489-0.883,11.601,0.041,16.668c0.185,1.016,1.734,0.585,1.549-0.427
						c-0.792-4.34-3.594-11.305-0.454-15.104C367.638,251.182,366.508,250.04,365.848,250.838L365.848,250.838z"/>
				</g>
				<g>
					<path style="fill:#E06F69;" d="M371.191,262.741c-2.048-4.241-2.757-8.908-3.167-13.557c-0.09-1.022-1.697-1.031-1.607,0
						c0.436,4.944,1.211,9.862,3.387,14.368C370.254,264.483,371.639,263.669,371.191,262.741L371.191,262.741z"/>
				</g>
				<g>
					<path style="fill:#E06F69;" d="M370.715,247.725c0.036,4.998,1.604,9.831,4.046,14.162c0.508,0.901,1.896,0.092,1.387-0.811
						c-2.306-4.091-3.792-8.627-3.826-13.351C372.314,246.692,370.707,246.689,370.715,247.725L370.715,247.725z"/>
				</g>
				<g>
					<path style="fill:#E06F69;" d="M358.822,263.714c1.719-2.185,2.696-4.82,3.705-7.385c0.662-1.682,2.258-7.816,4.694-7.617
						c1.03,0.084,1.025-1.523,0-1.607c-2.461-0.201-3.75,2.833-4.566,4.663c-1.59,3.563-2.526,7.704-4.969,10.809
						C357.053,263.382,358.183,264.527,358.822,263.714L358.822,263.714z"/>
				</g>
				<g>
					<path style="fill:#E06F69;" d="M363.512,265.29c0.495-1.201,1.252-2.313,1.842-3.469c0.469-0.919-0.916-1.733-1.387-0.811
						c-0.656,1.286-1.453,2.516-2.004,3.853C361.569,265.818,363.122,266.234,363.512,265.29L363.512,265.29z"/>
				</g>
				<g>
					<path style="fill:#E8E6E6;" d="M385.462,307.868c4.599-6.494,9.768-12.845,13.892-19.647c2.14-3.529,2.822-4.688,7.463-4.347
						c4.467,0.328,8.757,1.296,13.01,2.659c1.316,0.422,1.879-1.646,0.57-2.066c-4.43-1.419-8.935-2.4-13.58-2.735
						c-2.359-0.171-5.374-0.756-7.236,1.081c-1.07,1.056-1.336,3.037-2.077,4.327c-1.246,2.169-2.936,4.176-4.382,6.216
						c-3.17,4.477-6.34,8.953-9.51,13.43C382.814,307.914,384.671,308.985,385.462,307.868L385.462,307.868z"/>
				</g>
				<g>
					<path style="fill:#E8E6E6;" d="M336.356,281.608c4.73,3.435,9.363,7.274,14.415,10.225c4.041,2.361,8.344,3.143,12.938,3.688
						c1.366,0.162,1.354-1.981,0-2.142c-10.708-1.269-17.819-7.481-26.272-13.621C336.32,278.947,335.25,280.805,336.356,281.608
						L336.356,281.608z"/>
				</g>
			</g>
		</g>
		<g style="clip-path:url(#SVGID_00000028301772364308534250000011793037732146421158_);">
			<g>
				<path style="fill:#EF867B;" d="M170.44,338.27c-17.41,2.77-34.06,9.06-51.22,13.12c-17.16,4.07-35.61,5.83-52.13-0.33
					c-7.75-36.71-6.12-44.46-9.6-70.84c-1.21-9.23,2.86-36.12-1.17-44.51c-1.52-3.16-6.74-19.23-3.37-20.16
					c7.5-2.06,19.66-6.2,23.05-7.77c1.7-0.78,2.99-16.52,2.54-28.78c-0.06-1.84-0.17-3.61-0.32-5.23
					c-0.73-7.86-6.89-10.46,3.01-12.5c8.2-1.69,22.8,3.92,31.16,5.36c0.72,8.3,2.3,21.21,4.45,29.97c0.91,3.67,1.91,6.61,2.99,8.17
					c2.93,4.22,15.5,8.02,20.3,9.85c6.95,2.65,8.35-3.03,15.72-2.05C160.71,254.47,165.58,296.37,170.44,338.27z"/>
				<path style="fill:#E06F69;" d="M116.84,196.6c-0.94,0.13-3.467,1.673-4.507,1.733C94.533,199.303,84.46,186.82,78.54,179
					c-0.06-1.84-0.17-3.61-0.32-5.23c-0.73-7.86-6.89-10.46,3.01-12.5c8.2-1.69,22.8,3.92,31.16,5.36
					C113.11,174.93,114.69,187.84,116.84,196.6z"/>
				<g>
					<g>
						<path style="fill:#E06F69;" d="M115.519,223.791c0.629-4.811,9.326-4.688,12.91-5.253c1.042-0.164,0.599-1.748-0.437-1.584
							c-4.785,0.754-13.291,0.53-14.116,6.838C113.739,224.836,115.384,224.826,115.519,223.791L115.519,223.791z"/>
					</g>
					<g>
						<path style="fill:#E06F69;" d="M78.26,222.034c4.47-0.67,8.925-1.008,13.444-0.862c4.495,0.145,10.903-0.004,14.412,3.223
							c0.777,0.715,1.942-0.444,1.162-1.162c-3.09-2.842-7.33-3.067-11.363-3.442c-6.064-0.563-12.081-0.244-18.091,0.658
							C76.781,220.606,77.224,222.189,78.26,222.034L78.26,222.034z"/>
					</g>
					<g>
						<path style="fill:#E06F69;" d="M82.044,268.561c0.521,2.769,3.915,4.223,6.314,2.824c0.913-0.532,0.087-1.953-0.829-1.419
							c-1.542,0.899-3.578-0.128-3.901-1.842C83.433,267.086,81.849,267.526,82.044,268.561L82.044,268.561z"/>
					</g>
					<g>
						<path style="fill:#E06F69;" d="M65.097,268.967c2.925,2.772,5.851,5.545,8.776,8.318c0.767,0.727,1.931-0.433,1.162-1.162
							c-2.925-2.772-5.851-5.545-8.776-8.318C65.492,267.078,64.328,268.238,65.097,268.967L65.097,268.967z"/>
					</g>
					<g>
						<path style="fill:#E06F69;" d="M64.722,274.509c2.385,2.385,4.771,4.771,7.156,7.156c0.749,0.749,1.911-0.413,1.162-1.162
							c-2.385-2.385-4.771-4.771-7.156-7.156C65.135,272.598,63.973,273.759,64.722,274.509L64.722,274.509z"/>
					</g>
					<g>
						<path style="fill:#E06F69;" d="M65.816,281.076c1.361,2.147,3.194,3.897,5.415,5.137c0.924,0.516,1.754-0.903,0.829-1.419
							c-1.979-1.105-3.611-2.632-4.825-4.548C66.67,279.356,65.248,280.18,65.816,281.076L65.816,281.076z"/>
					</g>
				</g>
				<path style="fill:#F4F2F2;" d="M192.988,527.027c-0.012,0.859-10.226-0.501-15.951,0c-21.325,1.849-75.859,2.7-111.079,2.104
					c-10.305-0.179-29.263-0.382-35.202-0.561c3.852-15.827,5.986-67.002,6.13-83.294c0.179-19.798,5.904-33.71,5.904-53.508
					c0-16.626,11.724-19.941,5.486-33.61c-6.834-14.932,0.286-26.454-0.751-42.853c-0.179-2.862,8.253-8.623,10.448-11.676
					c0.179-0.227,0.31-0.441,0.394-0.644c2.206-4.902,7.979-6.87,13.048-8.695c19.107-6.858,36.556-19.035,48.113-35.733
					c10.961-15.851,5.522-36.234,0.298-53.79c0,0,0.847-1.419,8.051,1.658c7.705,3.28,22.589,3.363,27.968,6.142
					c4.508,2.326,1.586,7.275,4.711,11.319c2.016,2.588,6.524,9.971,6.727,13.251c2.302,37.009-0.859,46.252,14.885,79.826
					c1.264,2.684-2.672,14.789-6.273,26.072c-2.982,9.339-5.737,18.105-5.129,20.478c0.072,0.274,0.155,0.62,0.262,1.014
					c0,0,0,0.024,0.012,0.06c2.528,9.517,18.192,56.168,8.854,76.217C178.031,444.812,193.531,488.882,192.988,527.027z"/>
				<path style="fill:#E5DCDC;" d="M64.443,523.847c0.406,1.741,0.895,3.53,1.515,5.284c-10.305-0.179-29.263-0.382-35.202-0.561
					c3.852-15.827,5.986-67.002,6.13-83.294c0.179-19.798-1.387-35.759,5.521-58.296c4.872-15.896,9.431-18.916,5.869-28.821
					c-5.557-15.453,0.286-26.454-0.751-42.853c-0.179-2.862,8.253-8.623,10.448-11.676c-0.632,2.982-1.646,6.011-2.135,8.742
					c-1.193,6.596-1.896,13.286-2.099,19.989c-0.203,6.941,0.167,14.109,3.029,20.431c2.874,6.321,8.695,11.7,15.624,12.296
					c-6.059,7.955-10.4,17.21-12.619,26.955c-1.944,8.539-1.729,18.773,4.938,24.438c0.716,0.608,1.515,1.181,1.896,2.027
					c0.692,1.586-0.322,3.351-1.217,4.842c-3.256,5.451-6.361,12.826-6.803,19.159c-0.334,4.747,0.167,9.518,0.68,14.253
					C60.52,468.546,61.772,512.302,64.443,523.847z"/>
				<path style="fill:#F4F2F2;" d="M185.626,335.069c-4.186,4.499-10.1,9.713-16.166,10.697
					c-7.126,1.156-16.763-12.323-22.203-17.069c-4.519-3.942-8.864-13.327-6.422-25.027c0.123-0.589,7.388-19.712,10.578-45.651
					c0.72-5.856-0.928-46.264,4.436-45.447c11.316,1.725,19.315,33.144,21.582,37.406
					C190.621,274.779,200.32,319.277,185.626,335.069z"/>
				<path style="fill:#E5DCDC;" d="M170.763,363.514c0.072,0.274,0.155,0.62,0.262,1.014c-0.489-0.215-0.954-0.465-1.407-0.728
					c-2.576-1.503-4.926-3.542-7.812-4.258c-2.147-0.537-4.413-0.286-6.607-0.608c-7.359-1.085-12.261-8.253-14.742-15.266
					c-2.481-7.025-3.578-14.694-7.752-20.86c-2.874-4.222-7.12-7.621-8.826-12.44c-0.93-2.672-1.002-5.546-1.061-8.373
					c-0.179-8.981-0.322-18.2,2.695-26.656c-0.131,0.394,1.312,4.938,1.395,5.892c0.167,2.039,0.155,3.972,0.537,6.047
					c0.895,4.866,2.111,9.697,3.697,14.384c3.077,9.088,7.705,17.783,14.682,24.498c4.091,3.936,8.862,7.085,13.704,10.054
					c4.472,2.743,9.124,5.391,14.252,6.476c0.692,0.143,1.395,0.262,2.111,0.346C172.91,352.374,170.155,361.141,170.763,363.514z"
					/>
				<g>
					<path style="fill:#E5DCDC;" d="M95.809,335.273c4.136,11.773,8.78,23.881,17.687,32.946
						c9.119,9.281,21.586,14.099,33.492,18.683c1.317,0.507,1.887-1.61,0.582-2.113c-11.557-4.449-23.658-9.122-32.525-18.119
						c-8.648-8.774-13.118-20.577-17.124-31.98C97.457,333.37,95.34,333.938,95.809,335.273L95.809,335.273z"/>
				</g>
				<g>
					<path style="fill:#E5DCDC;" d="M90.587,387.558c17.569,21.881,46.179,26.818,72.367,30.699
						c1.379,0.204,1.974-1.906,0.582-2.113c-25.829-3.828-54.059-8.538-71.4-30.136C91.253,384.909,89.712,386.468,90.587,387.558
						L90.587,387.558z"/>
				</g>
				<g>
					<path style="fill:#E5DCDC;" d="M93.169,440.432c3.256-3.999,9.634-3.614,14.353-4.045c4.508-0.411,9.018-0.786,13.532-1.125
						c9.375-0.703,18.761-1.237,28.154-1.635c1.404-0.059,1.412-2.251,0-2.191c-11.48,0.486-22.95,1.181-34.401,2.127
						c-6.791,0.561-18.34-0.634-23.186,5.319C90.737,439.967,92.278,441.526,93.169,440.432L93.169,440.432z"/>
				</g>
				<g>
					<path style="fill:#E5DCDC;" d="M104.014,464.443c12.028-5.254,24.574-8.878,37.538-10.913c1.389-0.218,0.799-2.329-0.582-2.112
						c-13.164,2.067-25.851,5.801-38.061,11.134C101.62,463.114,102.734,465.002,104.014,464.443L104.014,464.443z"/>
				</g>
				<g>
					<path style="fill:#E5DCDC;" d="M144.367,230.727c-2.182,14.314,7.307,27.05,13.928,38.922c0.687,1.232,2.58,0.128,1.892-1.106
						c-6.257-11.22-15.768-23.708-13.707-37.234C146.689,229.931,144.579,229.336,144.367,230.727L144.367,230.727z"/>
				</g>
				<g>
					<path style="fill:#E5DCDC;" d="M163.099,278.394c8.37,0.426,14.281,6.268,19.79,11.933c0.985,1.013,2.533-0.537,1.549-1.549
						c-5.963-6.133-12.346-12.117-21.339-12.575C161.69,276.132,161.694,278.322,163.099,278.394L163.099,278.394z"/>
				</g>
				<g>
					<path style="fill:#E5DCDC;" d="M164.709,271.432c2.222-0.163,4.285,0.299,6.208,1.434c1.217,0.719,2.32-1.174,1.106-1.892
						c-2.227-1.315-4.731-1.923-7.314-1.734C163.311,269.344,163.3,271.535,164.709,271.432L164.709,271.432z"/>
				</g>
				<g>
					<path style="fill:#E5DCDC;" d="M126.712,212.965c2.861,6.934,4.413,14.085,4.632,21.59c0.041,1.407,2.232,1.413,2.191,0
						c-0.225-7.694-1.771-15.05-4.71-22.172C128.294,211.098,126.173,211.661,126.712,212.965L126.712,212.965z"/>
				</g>
				<g>
					<path style="fill:#E5DCDC;" d="M133.438,216.557c0.765,2.641,1.148,5.308,1.154,8.057c0.003,1.41,2.194,1.412,2.191,0
						c-0.006-2.938-0.415-5.817-1.232-8.64C135.159,214.623,133.044,215.198,133.438,216.557L133.438,216.557z"/>
				</g>
				<g>
					<path style="fill:#E5DCDC;" d="M107.666,300.145c-0.176,15.014,3.054,29.579,9.509,43.134c0.606,1.272,2.495,0.162,1.892-1.106
						c-6.291-13.211-9.381-27.397-9.21-42.028C109.873,298.734,107.683,298.733,107.666,300.145L107.666,300.145z"/>
				</g>
				<g>
					<path style="fill:#E5DCDC;" d="M80.923,365.252c4.117,0.745,8.234,1.49,12.352,2.235c1.378,0.249,1.97-1.862,0.582-2.113
						c-4.117-0.745-8.235-1.49-12.352-2.235C80.127,362.89,79.536,365.001,80.923,365.252L80.923,365.252z"/>
				</g>
				<g>
					<path style="fill:#E06F69;" d="M65.135,286.42c0.397,0.398,0.795,0.795,1.193,1.193c0.749,0.749,1.911-0.413,1.162-1.162
						c-0.398-0.398-0.795-0.795-1.193-1.193C65.548,284.509,64.386,285.671,65.135,286.42L65.135,286.42z"/>
				</g>
				<path style="fill:#E8E6E6;" d="M192.988,527.027c0,0.859-10.226-0.501-15.951,0c4.556-26.668-10.472-94.493-10.472-94.493
					c13.334-6.059,4.783-65.812,4.473-67.947c2.528,9.517,18.011,51.793,8.854,76.217
					C178.34,444.942,192.988,485.306,192.988,527.027z"/>
			</g>
			<g>
				<path style="fill:#EF867B;" d="M30.731,267.849c-0.408,9.794,0,62.07,18.165,68.279c2.366,0.809,17.383-7.853,17.383-25.073
					c0-24.078,3.393-53.035,0.384-73.921c-1.433-9.951-10.389-22.029-13.711-21.585c-12.064,1.612-21.977,7.718-23.895,22.996
					C27.444,251.39,30.936,262.923,30.731,267.849z"/>
				<path style="fill:#F99282;" d="M174.15,328.079c-3.382,0.451-8.349,0.039-14.058-5.665
					c-18.34-18.323-25.212-44.619-28.245-48.143c-5.525-6.419-9.969-16.815-10.267-26.721c-0.038-1.268-1.399-6.712,2.037-6.713
					c0,0,1.82-3.187,2.67-3.513c1.945-0.746,5.946,7.417,7.451,10.226c2.679,5.003,1.898,4.164,6.393,7.627
					c1.519-0.745-5.517-7.74,0-9.97c1.489,5.141,7.333,9.672,7.482,12.812c0.154,3.25,0.233,7.656,0.549,10.231
					c0.665,5.417,21.651,20.156,29.648,24.173C194.384,300.746,192.176,325.676,174.15,328.079z"/>
				<path style="fill:#EF867B;" d="M78.115,326.034c13.68-10.378,34.437-46.999,35.905-48.146
					c9.723-7.599,12.404-12.393,14.571-19.483c1.434-4.694,0.738-10.527,0.652-14.523c-0.058-2.702-1.195-7.594-2.183-9.378
					c-0.87-1.572-3.006-0.713-3.627,2.391c0,0-4.67-1.013-4.665,1.622c0.01,5.365-3.515,14.751-7.775,17.738
					c1.911-6.673-0.799-10.862-4.146-11.905c0.728,6.066-1.404,9.288-2.657,12.283c-3.748,8.959-2.203,10.864-2.203,10.864
					c-6.436,6.155-24.169,20.749-32.597,23.625c-11.318,3.863-34.134,22.522-27.218,38.506
					C48.558,344.392,67.72,333.919,78.115,326.034z"/>
				<g>
					<path style="fill:#E06F69;" d="M61.28,296.747c6.716-4.144,13.431-8.288,20.147-12.432c5.642-3.481,12.98-6.629,17.342-11.753
						c3.706-4.354,4.351-9.525,5.766-14.839c1.3-4.882,4.106-8.853,4.995-13.956c0.18-1.034-1.403-1.478-1.584-0.437
						c-0.795,4.567-3.034,8.195-4.556,12.457c-2.255,6.316-2.067,12.513-7.592,17.346c-4.964,4.342-11.429,7.436-17.032,10.893
						c-6.105,3.767-12.21,7.534-18.315,11.302C59.553,295.882,60.377,297.304,61.28,296.747L61.28,296.747z"/>
				</g>
				<g>
					<path style="fill:#E06F69;" d="M108.739,244.37c3.96,0.25,1.997,8.701,1.609,11.085c-0.169,1.034,1.414,1.479,1.584,0.437
						c0.594-3.648,2.66-12.796-3.193-13.165C107.683,242.661,107.687,244.304,108.739,244.37L108.739,244.37z"/>
				</g>
				<g>
					<path style="fill:#E06F69;" d="M111.527,256.061c2.875-2.506,5.793-5.778,6.485-9.663c0.18-1.012,0.747-12.627,3.825-9.28
						c0.478,0.52,1.251-0.256,0.775-0.774c-2.573-2.798-4.377,0.427-5.077,3.121c-0.463,1.781-0.319,3.683-0.492,5.498
						c-0.407,4.273-3.158,7.594-6.291,10.324C110.22,255.75,110.998,256.522,111.527,256.061L111.527,256.061z"/>
				</g>
				<g>
					<path style="fill:#E06F69;" d="M122.561,250.674c1.023-4.6,1.831-9.554,0.456-14.162c-0.302-1.011-1.888-0.58-1.584,0.437
						c1.29,4.322,0.503,8.978-0.456,13.288C120.748,251.267,122.332,251.707,122.561,250.674L122.561,250.674z"/>
				</g>
				<g>
					<path style="fill:#E06F69;" d="M129.999,252.765c0.139-4.148-0.399-8.313-0.987-12.414c-0.25-1.745-0.38-4.195-1.305-5.717
						c-1.597-2.628-5.15-0.153-6.009,1.951c-0.267,0.652,0.793,0.936,1.056,0.291c0.552-1.351,2.481-2.668,3.659-1.737
						c0.611,0.484,0.55,0.928,0.775,1.594c0.439,1.293,0.596,2.769,0.78,4.115c0.538,3.955,1.071,7.92,0.936,11.918
						C128.88,253.471,129.975,253.47,129.999,252.765L129.999,252.765z"/>
				</g>
				<g>
					<path style="fill:#E06F69;" d="M126.97,263.691c1.452-3.439,3.152-7.14,3.303-10.925c0.042-1.057-1.601-1.055-1.643,0
						c-0.138,3.463-1.749,6.947-3.078,10.096C125.145,263.824,126.56,264.663,126.97,263.691L126.97,263.691z"/>
				</g>
				<g>
					<path style="fill:#E06F69;" d="M128.742,250.9c0.908,2.085,1.414,4.091,2.783,5.955c0.619,0.843,2.046,0.025,1.419-0.829
						c-1.359-1.851-1.879-3.879-2.783-5.955C129.739,249.104,128.323,249.94,128.742,250.9L128.742,250.9z"/>
				</g>
				<g>
					<path style="fill:#E06F69;" d="M60.174,246.535c4.019,6.192,2.081,16.161,2.621,23.308c0.615,8.144,1.552,16.367-0.223,24.434
						c-0.227,1.03,6.588-2.122,6.816-3.156c1.938-8.807-2.518-14.426-3.128-23.316c-0.497-7.235-0.518-15.709-4.666-22.099
						C61.019,244.822,59.596,245.645,60.174,246.535L60.174,246.535z"/>
				</g>
				<g>
					<path style="fill:#E06F69;" d="M42.976,315.97c-2.641,3.008-1.872,7.952,1.663,9.913c0.926,0.513,1.755-0.905,0.829-1.419
						c-2.563-1.421-3.292-5.099-1.331-7.332C44.833,316.341,43.676,315.174,42.976,315.97L42.976,315.97z"/>
				</g>
				<g>
					<path style="fill:#E06F69;" d="M127.029,250.914c1.687-4.18,1.658-9.104,1.489-13.538c-0.04-1.054-1.684-1.059-1.643,0
						c0.165,4.313,0.209,9.042-1.43,13.101C125.049,251.457,126.638,251.883,127.029,250.914L127.029,250.914z"/>
				</g>
				<g>
					<path style="fill:#E06F69;" d="M32.422,267.558c1.525,2.157,3.477,3.897,5.826,5.115c0.937,0.486,1.769-0.931,0.829-1.419
						c-2.092-1.085-3.874-2.599-5.236-4.526C33.235,265.872,31.81,266.692,32.422,267.558L32.422,267.558z"/>
				</g>
				<g>
					<path style="fill:#E06F69;" d="M60.365,267.766c-1.723,1.855-3.445,3.711-5.168,5.566c-0.719,0.774,0.441,1.939,1.162,1.162
						c1.723-1.855,3.445-3.711,5.168-5.566C62.246,268.154,61.087,266.989,60.365,267.766L60.365,267.766z"/>
				</g>
			</g>
			<g>
				<path style="fill:#F99282;" d="M87.499,180.673c3.127,2.254,13.945,8.021,17.774,8.46c6.253,0.717,12.749,0.177,16.671-4.745
					c3.922-4.923,5.819-11.173,6.775-17.394c1.589-10.341,0.76-21.119-2.954-30.9c-1.75-4.609,0.509-7.569-3.198-10.82
					c-5.041-4.42-16.595-7.675-23.254-8.446c-16.119-1.866-30.984,11.727-29.544,28.409
					C71.072,160.338,75.444,171.983,87.499,180.673z"/>
				<g>
					<path style="fill:#E06F69;" d="M107.368,146.692c-0.001,5.644,1.393,11,4.135,15.931c0.514,0.924,1.934,0.097,1.419-0.829
						c-2.613-4.699-3.912-9.726-3.911-15.102C109.012,145.635,107.369,145.633,107.368,146.692L107.368,146.692z"/>
				</g>
				<path style="fill:#592616;" d="M76.353,140.22c5.057-0.269,9.771-3.886,11.341-8.7c0.386-1.183,0.641-2.498,1.556-3.341
					c1.949-1.793,4.978-0.2,7.413,0.842c2.312,0.99,4.865,1.408,7.372,1.208c5.614-0.448,11.37-3.876,16.533-1.626
					c0.066,7.229,3.206,14.38,8.484,19.32c0.434-7.393,5.764-10.022,3.652-14.549c-3.218-6.896,2.087-8.1-3.218-16.718
					c-1.189-1.931-9.101-2.317-10.199-4.301c-4.706-8.5-11.813-4.858-19.967-2.716c-1.043,0.274-2.08,0.657-3.158,0.652
					c-1.512-0.007-2.9-0.768-4.297-1.346c-9.518-3.938-20.725-0.823-23.958,8.957c-0.494,1.496-2.556,3.02-3.782,4.011
					c-2.307,1.866-4.487,0.859-6.155,3.313c-2.497,3.674-0.369,6.301,0.107,8.114c0.723,2.757-0.773,5.536-1.8,8.195
					c-1.027,2.658-1.389,6.171,0.871,7.907c0.947,0.727,2.188,0.98,3.149,1.689c1.299,0.958,1.883,2.577,2.538,4.053
					c0.941,2.122,2.159,4.12,3.613,5.93C79.843,177.779,79.357,140.06,76.353,140.22z"/>
				<g>
					<path style="fill:#FFFFFF;" d="M74.617,155.441c4.471,2.061,8.96,3.642,13.57,5.371c0.661,0.248,1.03-0.942,0.375-1.188
						c-4.521-1.695-9.007-3.108-13.392-5.13C74.534,154.202,73.977,155.146,74.617,155.441L74.617,155.441z"/>
				</g>
				<g>
					<path style="fill:#FFFFFF;" d="M75.937,171.188c4.075,3.462,8.993,8.266,13.25,11.5c0.561,0.426,1.18-0.661,0.625-1.083
						c-4.183-3.178-8.531-7.595-12.534-10.996C76.744,170.155,75.937,171.188,75.937,171.188z"/>
				</g>
				<path style="fill:#F99282;" d="M78.959,160.799c0.791-3.274-3.801-9.61-9.288-7.775c-7.9,2.642-1.764,21.529,8.163,18.432
					C81.622,170.275,78.282,163.603,78.959,160.799z"/>
				<path style="fill:#54D5B9;" d="M129.313,159.5c0,0-7.998-1.934-14.731-1.974c-10.501-0.062-27.144,1.491-27.144,1.491
					c1.918,9.989,1.735,17.89,0.062,21.655c0,0,11.803,11.654,21.688,11.327c5.901-0.195,11.709-2.194,15.438-6.771
					C127.412,181.807,130.938,172.563,129.313,159.5z"/>
				<g>
					<path style="fill:#592616;" d="M89.22,147.044c2.226-1.647,4.769-2.331,7.521-2.024c1.049,0.117,1.041-1.527,0-1.643
						c-2.994-0.334-5.929,0.457-8.35,2.248C87.55,146.248,88.368,147.674,89.22,147.044L89.22,147.044z"/>
				</g>
				<g>
					<path style="fill:#592616;" d="M114.834,144.305c1.935-0.63,4.33-1.44,6.126-0.083c0.843,0.638,1.663-0.788,0.829-1.419
						c-2.158-1.631-5.054-0.844-7.392-0.083C113.396,143.046,113.825,144.633,114.834,144.305L114.834,144.305z"/>
				</g>
				<path style="fill:#592616;" d="M96.741,151.333c0,1.722-0.888,3.117-1.984,3.117c-1.096,0-1.984-1.396-1.984-3.117
					c0-1.722,0.888-3.117,1.984-3.117C95.852,148.216,96.741,149.611,96.741,151.333z"/>
				<path style="fill:#592616;" d="M119.979,151.193c0,1.722-0.888,3.117-1.984,3.117c-1.096,0-1.984-1.396-1.984-3.117
					c0-1.721,0.888-3.117,1.984-3.117C119.091,148.076,119.979,149.471,119.979,151.193z"/>
				<g>
					<path style="fill:#E06F69;" d="M74.293,156.508c-2.701-2.438-5.094,0.935-5.19,3.563c-0.142,3.876,2.233,7.454,5.654,9.142
						c0.945,0.466,1.779-0.951,0.829-1.419c-1.818-0.897-3.264-2.26-4.113-4.124c-0.464-1.019-0.743-2.158-0.738-3.28
						c0.005-1.09,0.83-4.133,2.396-2.72C73.915,158.377,75.08,157.219,74.293,156.508L74.293,156.508z"/>
				</g>
				<g>
					<path style="fill:#48BCA0;" d="M99.922,167.287c7.402-0.672,14.819-0.84,22.244-0.502c0.705,0.032,0.703-1.063,0-1.095
						c-7.425-0.337-14.842-0.17-22.244,0.502C99.226,166.255,99.219,167.35,99.922,167.287L99.922,167.287z"/>
				</g>
				<g>
					<path style="fill:#48BCA0;" d="M100.312,173.613c6.624-0.426,13.248-0.853,19.872-1.279c0.7-0.045,0.705-1.141,0-1.095
						c-6.624,0.426-13.248,0.853-19.872,1.279C99.612,172.562,99.607,173.658,100.312,173.613L100.312,173.613z"/>
				</g>
				<g>
					<path style="fill:#48BCA0;" d="M106.267,179.054c3.711-0.133,7.421-0.266,11.132-0.398c0.703-0.025,0.706-1.121,0-1.095
						c-3.711,0.133-7.421,0.265-11.132,0.398C105.565,177.984,105.561,179.079,106.267,179.054L106.267,179.054z"/>
				</g>
				<g>
					<path style="fill:#FFFFFF;" d="M87.961,181.378c2.185-7,2.299-14.303,0.341-21.369c-0.188-0.678-1.245-0.39-1.056,0.291
						c1.909,6.89,1.789,13.963-0.341,20.787C86.695,181.761,87.752,182.049,87.961,181.378L87.961,181.378z"/>
				</g>
				<g>
					<path style="fill:#FFFFFF;" d="M87.5,160.125c7.235-1.115,14.384-1.378,21.699-1.668c6.613-0.262,13.785-0.799,20.035,1.751
						c0.652,0.266,0.936-0.793,0.291-1.056c-6.35-2.591-13.615-2.055-20.327-1.791c-7.413,0.292-14.431,0.526-21.762,1.655
						C86.742,159.124,87.5,160.125,87.5,160.125z"/>
				</g>
				<g>
					<path style="fill:#FFFFFF;" d="M87.264,181.6c8.023,7.976,19.702,14.282,30.967,9.15c5.273-2.402,8.456-6.375,10.407-11.987
						c0.844-2.427,1.25-4.686,1.417-7.216c0.263-3.969,0.346-7.909-0.127-11.867c-0.082-0.691-1.179-0.7-1.095,0
						c1.251,10.479,0.269,24.453-10.48,29.803c-10.923,5.436-22.49-0.88-30.314-8.658C87.538,180.327,86.764,181.102,87.264,181.6
						L87.264,181.6z"/>
				</g>
				<g>
					<path style="fill:#7C3A28;" d="M69.143,135.181c2.82,1.209,6.069,0.786,7.804-2.015c1.436-2.317,1.062-4.99,2.851-7.275
						c2.97-3.791,7.862-4.445,12.346-4.635c1.404-0.06,1.412-2.251,0-2.191c-4.215,0.178-8.575,0.758-12.024,3.4
						c-1.354,1.037-2.473,2.31-3.259,3.823c-1.276,2.456-1.18,9.328-6.612,7C68.967,132.74,67.85,134.627,69.143,135.181
						L69.143,135.181z"/>
				</g>
				<g>
					<path style="fill:#7C3A28;" d="M64.767,129.578c2.961,0.314,6.637,0.239,8.018-2.921c1.111-2.544,0.943-5.039,3.124-7.203
						c2.635-2.615,6.335-3.608,9.916-2.681c1.366,0.353,1.948-1.759,0.582-2.113c-3.985-1.031-8.06-0.15-11.239,2.516
						c-1.522,1.276-2.772,2.91-3.493,4.769c-0.379,0.977-0.312,2.225-0.728,3.126c-1.346,2.916-3.717,2.577-6.179,2.316
						C63.366,127.239,63.377,129.431,64.767,129.578L64.767,129.578z"/>
				</g>
				<g>
					<path style="fill:#7C3A28;" d="M104.084,123.811c3.54-0.194,6.896-1.074,10.08-2.632c1.266-0.62,0.157-2.51-1.106-1.892
						c-2.832,1.386-5.826,2.161-8.974,2.333C102.681,121.697,102.672,123.888,104.084,123.811L104.084,123.811z"/>
				</g>
				<g>
					<path style="fill:#7C3A28;" d="M102.884,116.612c3.459,0.329,6.712-1.331,8.614-4.207c0.78-1.179-1.117-2.278-1.892-1.106
						c-1.502,2.272-4.039,3.378-6.722,3.122C101.481,114.288,101.49,116.479,102.884,116.612L102.884,116.612z"/>
				</g>
				<g>
					<path style="fill:#7C3A28;" d="M120.272,124.096c1.672,0.943,2.941,2.399,3.581,4.217c0.465,1.321,2.582,0.753,2.112-0.582
						c-0.829-2.355-2.407-4.296-4.588-5.526C120.148,121.511,119.043,123.403,120.272,124.096L120.272,124.096z"/>
				</g>
				<g>
					<path style="fill:#7C3A28;" d="M123.45,120.17c1.182,0.468,1.973,1.547,2.242,2.761c0.305,1.376,2.417,0.793,2.112-0.582
						c-0.445-2.01-1.883-3.544-3.772-4.291c-0.55-0.218-1.203,0.239-1.347,0.765C122.514,119.445,122.898,119.951,123.45,120.17
						L123.45,120.17z"/>
				</g>
				<g>
					<path style="fill:#7C3A28;" d="M63.817,138.812c-2.218,0.685-3.209,3.124-2.323,5.205c0.234,0.549,1.031,0.659,1.499,0.393
						c0.567-0.322,0.623-0.958,0.393-1.499c-0.327-0.768,0.271-1.757,1.014-1.986C65.742,140.509,65.169,138.394,63.817,138.812
						L63.817,138.812z"/>
				</g>
				<g>
					<path style="fill:#7C3A28;" d="M69.526,142.011c-0.202,1.192-0.404,2.384-0.606,3.576c-0.234,1.379,1.877,1.972,2.112,0.582
						c0.202-1.192,0.404-2.384,0.606-3.576C71.872,141.214,69.762,140.622,69.526,142.011L69.526,142.011z"/>
				</g>
			</g>
		</g>
	</g>
</g>
</svg>
