<?xml version="1.0" encoding="utf-8"?>
<!-- Generator: Adobe Illustrator 27.5.0, SVG Export Plug-In . SVG Version: 6.00 Build 0)  -->
<svg version="1.1" xmlns="http://www.w3.org/2000/svg" xmlns:xlink="http://www.w3.org/1999/xlink" x="0px" y="0px"
	 viewBox="0 0 500 500" style="enable-background:new 0 0 500 500;" xml:space="preserve">
<g id="BACKGROUND">
	<rect style="fill:#EDF6FF;" width="500" height="500"/>
	<path style="fill:#D5E7FD;" d="M306.313,61.318h34.837c0,0-0.792-11.01-9.437-6.556c0,0-1.31-7.598-11.789-7.598
		s-12.052,9.956-12.052,9.956s-8.122-0.772-7.86,4.199H306.313z"/>
	<path style="fill:#D5E7FD;" d="M236.693,108.493h40.128c0,0-0.912-12.683-10.871-7.552c0,0-1.509-8.752-13.58-8.752
		s-13.882,11.468-13.882,11.468s-9.355-0.89-9.053,4.836H236.693z"/>
	<path style="fill:#D5E7FD;" d="M373.137,128.814h40.128c0,0-0.912-12.682-10.871-7.552c0,0-1.509-8.752-13.58-8.752
		s-13.882,11.468-13.882,11.468s-9.355-0.89-9.053,4.836H373.137z"/>
</g>
<g id="OBJECTS">
	<g>
		<defs>
			<rect id="SVGID_1_" width="500" height="500"/>
		</defs>
		<defs>
			<rect id="SVGID_00000000203359292987252120000017817995516624986786_" width="500" height="500"/>
		</defs>
		<clipPath id="SVGID_00000162311043723650771810000016259670413477684126_">
			<use xlink:href="#SVGID_1_"  style="overflow:visible;"/>
		</clipPath>
		
			<clipPath id="SVGID_00000147216534148382726910000009629771641622356371_" style="clip-path:url(#SVGID_00000162311043723650771810000016259670413477684126_);">
			<use xlink:href="#SVGID_00000000203359292987252120000017817995516624986786_"  style="overflow:visible;"/>
		</clipPath>
		<path style="clip-path:url(#SVGID_00000147216534148382726910000009629771641622356371_);fill:#E2F0FF;" d="M484.813,91.765
			c-12.261-2.635-24.787,5.578-31.176,16.37s-8.005,23.655-9.488,36.108c-10.987,1.184-20.156,11.654-19.879,22.702
			c0.135,5.385,2.18,11.005,0.128,15.986c-1.681,4.081-5.688,6.616-8.764,9.783c-5.617,5.784-8.252,14.32-6.874,22.263
			c-5.182-12.018-20.126-17.644-32.994-15.253c-12.867,2.391-23.702,11.162-32.15,21.157c-13.383-11.361-34.098-13.088-49.177-4.099
			c-0.705-12.744-17.167-21.552-28.161-15.068c9.341-13.912-5.158-36.085-21.649-33.105c2.283-11.537,2.073-24.049-3.509-34.401
			s-17.467-17.82-29.028-15.664c3.874-8.672-0.04-19.234-6.845-25.86c-6.805-6.626-15.939-10.189-24.809-13.586
			c-8.854-3.391-17.707-6.783-26.561-10.174c-12.855-4.924-27.232-9.862-40-4.717C97.562,70.784,91.527,90.4,88.039,107.644
			c-13.333,65.93-18.803,133.447-16.258,200.664c0.317,8.369,1.904,18.458,9.645,21.653c2.893,1.194,6.13,1.12,9.258,1.026
			c127.139-3.834,254.196-10.394,381.054-19.674c15.048-1.101,30.317-2.287,44.487-7.468c14.17-5.182,27.347-14.959,33.192-28.869
			c3.861-9.188,4.275-19.401,4.636-29.361c0.877-24.219,1.754-48.438,2.631-72.657c1.531-42.264,2.738-98.905-26.631-133.484
			C487.58-10.535,474.258,89.497,484.813,91.765z"/>
		<g style="clip-path:url(#SVGID_00000147216534148382726910000009629771641622356371_);">
			<path style="fill:#E4E3E1;" d="M472.226,138.662c-13.696,0-27.392,0-41.088,0c-5.27-13.732-5.27-29.161,0-42.893
				c13.696,0,27.392,0,41.088,0C477.497,109.501,477.497,124.93,472.226,138.662z"/>
			<g>
				
					<rect x="432.694" y="127.021" transform="matrix(-1 -1.224647e-16 1.224647e-16 -1 903.3649 441.8811)" style="fill:#E4E3E1;" width="37.976" height="187.84"/>
				
					<rect x="428.303" y="89.611" transform="matrix(-1 -1.224647e-16 1.224647e-16 -1 903.3649 185.3798)" style="fill:#BEBEBE;" width="46.758" height="6.158"/>
				
					<rect x="428.303" y="138.662" transform="matrix(-1 -1.224647e-16 1.224647e-16 -1 903.3649 283.4816)" style="fill:#BEBEBE;" width="46.758" height="6.158"/>
				
					<rect x="450.939" y="36.513" transform="matrix(-1 -1.224647e-16 1.224647e-16 -1 903.365 98.6268)" style="fill:#FCD351;" width="1.487" height="25.601"/>
				<path style="fill:#FCD351;" d="M442.501,30.993c0,5.072,4.109,9.182,9.182,9.182s9.182-4.109,9.182-9.182
					c0-1.546-0.38-2.997-1.058-4.272c-0.014,5.167-3.648,9.344-8.124,9.344c-4.476,0-8.11-4.191-8.11-9.371
					C442.881,27.982,442.501,29.447,442.501,30.993z"/>
				<circle style="fill:#FCD351;" cx="451.682" cy="49.313" r="2.946"/>
				<path style="fill:#E4E3E1;" d="M428.301,89.616h46.762L460.05,74.508V63.075c0-4.621-3.746-8.368-8.368-8.368l0,0
					c-4.621,0-8.368,3.746-8.368,8.368v11.433L428.301,89.616z"/>
				<g>
					<g>
						<g>
							<path style="fill:#BEBEBE;" d="M434.013,131.85h6.224c0.728,0,1.319-0.59,1.319-1.319v-21.668
								c0-2.447-1.984-4.431-4.431-4.431l0,0c-2.447,0-4.431,1.984-4.431,4.431v21.668
								C432.694,131.26,433.285,131.85,434.013,131.85z"/>
						</g>
						<g>
							<path style="fill:#BEBEBE;" d="M463.127,131.85h6.224c0.728,0,1.319-0.59,1.319-1.319v-21.668
								c0-2.447-1.984-4.431-4.431-4.431l0,0c-2.447,0-4.431,1.984-4.431,4.431v21.668
								C461.808,131.26,462.399,131.85,463.127,131.85z"/>
						</g>
						<g>
							<path style="fill:#BEBEBE;" d="M448.57,131.85h6.224c0.728,0,1.319-0.59,1.319-1.319v-21.668
								c0-2.447-1.984-4.431-4.431-4.431l0,0c-2.447,0-4.431,1.984-4.431,4.431v21.668C447.251,131.26,447.842,131.85,448.57,131.85
								z"/>
						</g>
					</g>
				</g>
			</g>
			<g>
				<g>
					<g>
						<rect x="-35.646" y="262.124" style="fill:#EFEFEF;" width="535.646" height="5.4"/>
					</g>
					<g>
						<rect x="-35.646" y="347.268" style="fill:#EFEFEF;" width="535.646" height="5.4"/>
					</g>
					<g>
						<rect x="-35.646" y="267.523" style="fill:#BFBFBF;" width="535.646" height="79.744"/>
					</g>
					<g>
						<rect x="-35.646" y="352.668" style="fill:#E5E4E2;" width="535.646" height="106.287"/>
					</g>
					<g>
						<g>
							<g>
								<g>
									<path style="fill:#404040;" d="M140.34,347.27H88.09c0-40.36,26.12-48.67,26.12-48.67S140.34,306.91,140.34,347.27z"/>
								</g>
								<g>
									<path style="fill:#404040;" d="M210.202,347.27h-52.25c0-40.36,26.12-48.67,26.12-48.67S210.202,306.91,210.202,347.27z"/>
								</g>
								<g>
									<path style="fill:#404040;" d="M280.064,347.27h-52.25c0-40.36,26.12-48.67,26.12-48.67S280.064,306.91,280.064,347.27z"/>
								</g>
								<g>
									<path style="fill:#404040;" d="M349.926,347.27h-52.25c0-40.36,26.12-48.67,26.12-48.67S349.926,306.91,349.926,347.27z"/>
								</g>
								<g>
									<path style="fill:#404040;" d="M419.789,347.27h-52.25c0-40.36,26.12-48.67,26.12-48.67S419.789,306.91,419.789,347.27z"/>
								</g>
								<g>
									<path style="fill:#404040;" d="M489.651,347.27h-52.25c0-40.36,26.12-48.67,26.12-48.67S489.651,306.91,489.651,347.27z"/>
								</g>
							</g>
						</g>
						<g>
							<g>
								<g>
									<path style="fill:#404040;" d="M140.34,408.762H88.09c0-40.36,26.12-48.67,26.12-48.67S140.34,368.402,140.34,408.762z"/>
								</g>
								<g>
									<path style="fill:#404040;" d="M210.202,408.762h-52.25c0-40.36,26.12-48.67,26.12-48.67S210.202,368.402,210.202,408.762z
										"/>
								</g>
								<g>
									<path style="fill:#404040;" d="M280.064,408.762h-52.25c0-40.36,26.12-48.67,26.12-48.67S280.064,368.402,280.064,408.762z
										"/>
								</g>
								<g>
									<path style="fill:#404040;" d="M349.926,408.762h-52.25c0-40.36,26.12-48.67,26.12-48.67S349.926,368.402,349.926,408.762z
										"/>
								</g>
								<g>
									<path style="fill:#404040;" d="M419.789,408.762h-52.25c0-40.36,26.12-48.67,26.12-48.67S419.789,368.402,419.789,408.762z
										"/>
								</g>
								<g>
									<path style="fill:#404040;" d="M489.651,408.762h-52.25c0-40.36,26.12-48.67,26.12-48.67S489.651,368.402,489.651,408.762z
										"/>
								</g>
							</g>
						</g>
						<g>
							<rect x="84.809" y="408.762" style="fill:#404040;" width="58.813" height="41.31"/>
						</g>
						<g>
							<rect x="154.671" y="408.762" style="fill:#404040;" width="58.813" height="41.31"/>
						</g>
						<g>
							<rect x="224.533" y="408.762" style="fill:#404040;" width="58.813" height="41.31"/>
						</g>
						<g>
							<rect x="294.395" y="408.762" style="fill:#404040;" width="58.813" height="41.31"/>
						</g>
						<g>
							<rect x="364.257" y="408.762" style="fill:#404040;" width="58.813" height="41.31"/>
						</g>
						<g>
							<rect x="434.119" y="408.762" style="fill:#404040;" width="58.813" height="41.31"/>
						</g>
					</g>
				</g>
			</g>
			<g>
				
					<rect x="-230.746" transform="matrix(-1 -1.224647e-16 1.224647e-16 -1 -77.2711 433.4424)" style="fill:#2D3F4E;" width="384.221" height="433.442"/>
				
					<rect x="-230.746" y="433.442" transform="matrix(-1 -1.224647e-16 1.224647e-16 -1 -77.2711 954.2655)" style="fill:#5B3B3B;" width="384.221" height="87.381"/>
				
					<rect x="-230.746" y="398.156" transform="matrix(-1 -1.224647e-16 1.224647e-16 -1 -77.2711 841.4812)" style="fill:#FFFFFF;" width="384.221" height="45.168"/>
				
					<rect x="-230.746" y="74.612" transform="matrix(-1 -1.224647e-16 1.224647e-16 -1 -77.2711 198.1227)" style="fill:#FFCB66;" width="384.221" height="48.899"/>
				
					<rect x="-230.746" y="83.606" transform="matrix(-1 -1.224647e-16 1.224647e-16 -1 -77.2711 177.5162)" style="fill:#2D3F4E;" width="384.221" height="10.303"/>
				<path style="fill:#FFCB66;" d="M-22.101,149.323h90.008c5.842,0,10.578,4.736,10.578,10.578v27.742
					c0,5.842-4.736,10.578-10.578,10.578h-90.008c-5.842,0-10.578-4.736-10.578-10.578v-27.742
					C-32.679,154.059-27.943,149.323-22.101,149.323z"/>
				<path style="fill:#2D3F4E;" d="M-15.9,158.742h77.607c4.211,0,7.624,3.413,7.624,7.624v14.813c0,4.211-3.413,7.624-7.624,7.624
					H-15.9c-4.211,0-7.624-3.413-7.624-7.624v-14.813C-23.524,162.155-20.111,158.742-15.9,158.742z"/>
				<path style="fill:#FFCB66;" d="M-220.168,149.323h90.008c5.842,0,10.578,4.736,10.578,10.578v27.742
					c0,5.842-4.736,10.578-10.578,10.578h-90.008c-5.842,0-10.578-4.736-10.578-10.578v-27.742
					C-230.746,154.059-226.01,149.323-220.168,149.323z"/>
				<path style="fill:#FFCB66;" d="M138.016,168.221l-13.347-13.347c-3.066-3.066-8.037-3.066-11.103,0l-13.347,13.347
					c-3.066,3.066-3.066,8.037,0,11.103l13.347,13.347c3.066,3.066,8.037,3.066,11.103,0l13.347-13.347
					C141.081,176.258,141.081,171.287,138.016,168.221z"/>
				<path style="fill:#FFCB66;" d="M-55.788,168.221l-13.347-13.347c-3.066-3.066-8.037-3.066-11.103,0l-13.347,13.347
					c-3.066,3.066-3.066,8.037,0,11.103l13.347,13.347c3.066,3.066,8.037,3.066,11.103,0l13.347-13.347
					C-52.722,176.258-52.722,171.287-55.788,168.221z"/>
				
					<ellipse transform="matrix(0.9251 -0.3798 0.3798 0.9251 -57.0696 58.2566)" style="fill:#2D3F4E;" cx="119.118" cy="173.772" rx="12.545" ry="12.546"/>
				
					<ellipse transform="matrix(0.7071 -0.7071 0.7071 0.7071 -144.7505 -1.9143)" style="fill:#2D3F4E;" cx="-74.686" cy="173.772" rx="12.546" ry="12.546"/>
				<path style="fill:#2D3F4E;" d="M-217.347,154.558h84.366c4.211,0,7.624,3.413,7.624,7.624v23.18
					c0,4.211-3.413,7.624-7.624,7.624h-84.366c-4.21,0-7.624-3.413-7.624-7.624v-23.18
					C-224.97,157.972-221.557,154.558-217.347,154.558z"/>
				<rect x="98.293" y="102.04" style="fill:#2D3F4E;" width="44.483" height="12.824"/>
				<rect x="24.332" y="102.04" style="fill:#2D3F4E;" width="44.483" height="12.824"/>
				<rect x="-49.628" y="102.04" style="fill:#2D3F4E;" width="44.483" height="12.824"/>
				<rect x="-123.589" y="102.04" style="fill:#2D3F4E;" width="44.483" height="12.824"/>
				<rect x="-197.549" y="102.04" style="fill:#2D3F4E;" width="44.483" height="12.824"/>
				<rect x="-271.51" y="102.04" style="fill:#2D3F4E;" width="44.483" height="12.824"/>
				<g>
					<rect x="-221.673" y="451.07" style="fill:#724B4A;" width="52.549" height="21.596"/>
					<rect x="-149.94" y="451.07" style="fill:#724B4A;" width="52.549" height="21.596"/>
					<rect x="-78.208" y="451.07" style="fill:#724B4A;" width="52.549" height="21.596"/>
					<rect x="-6.475" y="451.07" style="fill:#724B4A;" width="52.549" height="21.596"/>
					<rect x="65.258" y="451.07" style="fill:#724B4A;" width="52.549" height="21.596"/>
					<rect x="136.99" y="451.07" style="fill:#724B4A;" width="16.484" height="21.596"/>
				</g>
				<g>
					<rect x="-244.242" y="484.666" style="fill:#724B4A;" width="52.549" height="21.596"/>
					<rect x="-172.509" y="484.666" style="fill:#724B4A;" width="52.549" height="21.596"/>
					<rect x="-100.777" y="484.666" style="fill:#724B4A;" width="52.549" height="21.596"/>
					<rect x="-29.044" y="484.666" style="fill:#724B4A;" width="52.549" height="21.596"/>
					<rect x="42.689" y="484.666" style="fill:#724B4A;" width="52.549" height="21.596"/>
					<rect x="114.421" y="484.666" style="fill:#724B4A;" width="40.015" height="21.596"/>
				</g>
			</g>
			<polygon style="opacity:0.31;fill:#2D3F4E;" points="63.921,1.156 3.992,525.597 -81.093,525.597 -97.058,1.156 			"/>
		</g>
		<path style="clip-path:url(#SVGID_00000147216534148382726910000009629771641622356371_);fill:#C49178;" d="M558.35,513.823
			c-1.896-7.634-4.177-14.922-6.908-21.346c5.051-2.541,12.099-17.375,12.099-17.375l-6.368-14.555c0,0,11.826-16.829,10.461-20.468
			c-1.364-3.639-10.461-13.645-10.461-13.645s-3.184-36.387-14.555-68.681c-9.575-27.192-15.28-44.707-21.459-51.736l0,0l0,0
			c-1.159-1.319-2.335-2.27-3.557-2.845l-2.729-12.117l-7.326-1.653l0,0l-3.136-0.708l-1.778-8.11
			c-2.719,0.624-6.393,2.23-10.404,4.332c5.128-7.485,11.947-20.539,7.007-31.857c-7.431-17.027-25.946-15.826-34.966-11.178
			c-9.02,4.648-10.973,12.028-10.777,17.453c0.001-0.001,0.001-0.001,0.001-0.001c-2.621,7.62-3.821,14.092-3.903,14.88
			c-0.092,0.891-4.647,3.57-4.363,5.175c0.284,1.605,6.65,3.165,6.65,3.165s1.587,10.744,4.897,13.563
			c1.765,1.504,7.64,0.422,13.167-2.747l1.566,3.437l0,0l0.375,0.823c-5.409,3.882-9.081,7.018-8.581,7.525
			c0.796,0.806,2.372,4.107,3.531,6.683l1.416,3.24l-4.947,4.448v5.474c0,0-3.27,9.344-5.325,16.983l-0.001-0.001l-0.002,0.012
			c-0.994,3.696-1.704,6.994-1.618,8.635c0,0-2.119-4.768-3.973-5.828c-1.146-0.655-2.796-0.702-3.891-0.643l-7.313-6.567
			c0,0-1.323-1.323-1.323-4.948c0-3.626-0.22-6.514-3.306-9.6c-3.086-3.086-2.187-10.956-4.342-9.545
			c-4.775,3.127,0.594,14.615-2.271,13.292c-1.029-0.475-3.796-2.459-6.977-4.754c-2.437-4.061-3.119-7.898-4.282-8.636
			c-1.145-0.727-1.853,1.599-1.635,4.41c-3.785-2.641-7.045-4.714-7.606-4.247c-0.976,0.813,0.924,3.061,1.99,4.187
			c-0.319-0.316-0.728-0.71-1.176-1.119c-0.002-0.002-0.005-0.005-0.007-0.007l-0.009-0.008c-0.505-0.461-1.051-0.929-1.562-1.31
			l-0.027-0.023c0.001,0.002,0.001,0.003,0.002,0.005c-0.864-0.641-1.618-1.019-1.855-0.623c-0.661,1.102-0.639,3.548,2.327,7.831
			c2.966,4.284,13.51,18.453,18.453,21.748c4.578,3.052,10.012,23.343,26.306,38.862c0.307,1.188,0.628,2.395,0.964,3.617
			c0,0-0.005-0.005-0.005-0.005c0,36.985,4.087,56.095,4.087,56.095l-4.087,15.46l2.044,6.823c0,0-1.59,98.7,4.78,123.258h106.084
			C567.745,588.353,566.797,547.767,558.35,513.823z"/>
		<path style="clip-path:url(#SVGID_00000147216534148382726910000009629771641622356371_);fill:#C49178;" d="M391.835,606.307
			c-1.897-7.634-4.178-14.922-6.908-21.346c5.051-2.541,12.099-17.375,12.099-17.375l-6.368-14.555c0,0,11.826-16.829,10.461-20.468
			c-1.364-3.639-10.461-13.645-10.461-13.645s-3.184-36.387-14.555-68.681c-9.575-27.192-15.28-44.707-21.459-51.736l0,0l0,0
			c-1.159-1.319-2.335-2.27-3.557-2.845l-2.729-12.117l-7.326-1.653l0,0l-3.136-0.708l-1.778-8.11
			c-2.719,0.624-6.393,2.23-10.404,4.332c5.128-7.485,11.947-20.539,7.007-31.857c-7.431-17.027-25.946-15.826-34.966-11.178
			c-9.021,4.648-10.973,12.028-10.777,17.453c0,0,0.001-0.001,0.001-0.001c-2.621,7.62-3.821,14.092-3.903,14.88
			c-0.092,0.891-4.647,3.57-4.363,5.175c0.284,1.605,6.65,3.165,6.65,3.165s1.587,10.744,4.897,13.563
			c1.765,1.504,7.64,0.422,13.167-2.747l1.566,3.437l0,0l0.375,0.823c-5.409,3.882-9.081,7.018-8.581,7.525
			c0.796,0.806,2.372,4.107,3.531,6.683l1.416,3.24l-4.947,4.448v5.474c0,0-3.27,9.344-5.325,16.983l-0.001-0.001l-0.002,0.012
			c-0.994,3.696-1.704,6.994-1.618,8.635c0,0-2.119-4.768-3.973-5.827c-1.146-0.655-2.796-0.702-3.891-0.643l-7.313-6.567
			c0,0-1.323-1.323-1.323-4.948c0-3.626-0.221-6.514-3.307-9.6c-3.086-3.086-2.187-10.956-4.342-9.545
			c-4.775,3.127,0.594,14.615-2.271,13.292c-1.029-0.475-3.796-2.459-6.977-4.754c-2.437-4.061-3.12-7.898-4.282-8.636
			c-1.145-0.727-1.854,1.599-1.635,4.41c-3.785-2.641-7.045-4.714-7.606-4.247c-0.975,0.813,0.924,3.061,1.99,4.187
			c-0.319-0.316-0.728-0.71-1.176-1.119c-0.002-0.002-0.005-0.005-0.007-0.007l-0.009-0.008c-0.505-0.461-1.051-0.929-1.562-1.31
			l-0.027-0.023c0.001,0.002,0.001,0.003,0.002,0.005c-0.864-0.641-1.618-1.019-1.855-0.623c-0.661,1.102-0.639,3.547,2.327,7.831
			c2.966,4.284,13.51,18.453,18.453,21.748c4.578,3.052,10.013,23.343,26.306,38.862c0.307,1.188,0.628,2.395,0.964,3.617
			c0,0-0.005-0.005-0.005-0.005c0,36.985,4.087,56.095,4.087,56.095l-4.087,15.46l2.044,6.823c0,0-1.591,98.7,4.78,123.258h106.084
			C401.229,680.837,400.281,640.251,391.835,606.307z"/>
		<path style="clip-path:url(#SVGID_00000147216534148382726910000009629771641622356371_);fill:#C49178;" d="M240.605,612.801
			c-1.896-7.634-4.177-14.922-6.908-21.346c5.051-2.541,12.099-17.375,12.099-17.375l-6.368-14.555c0,0,11.826-16.829,10.461-20.468
			c-1.365-3.639-10.461-13.645-10.461-13.645s-3.184-36.387-14.555-68.681c-9.575-27.192-15.28-44.707-21.459-51.736l0,0l0,0
			c-1.159-1.318-2.335-2.27-3.557-2.845l-2.729-12.117l-7.326-1.653l0,0l-3.136-0.708l-1.778-8.11
			c-2.719,0.624-6.393,2.23-10.404,4.332c5.128-7.485,11.947-20.539,7.007-31.857c-7.43-17.026-25.946-15.826-34.966-11.178
			c-9.02,4.648-10.973,12.028-10.777,17.453c0.001,0,0.001-0.001,0.002-0.001c-2.621,7.62-3.821,14.092-3.903,14.88
			c-0.092,0.891-4.647,3.57-4.363,5.175c0.284,1.605,6.65,3.165,6.65,3.165s1.587,10.744,4.896,13.563
			c1.765,1.504,7.64,0.422,13.167-2.747l1.566,3.437l0,0l0.375,0.823c-5.409,3.882-9.081,7.018-8.581,7.525
			c0.796,0.806,2.372,4.107,3.531,6.683l1.416,3.24l-4.947,4.448v5.475c0,0-3.27,9.344-5.325,16.983l-0.001-0.001l-0.002,0.012
			c-0.994,3.696-1.704,6.994-1.618,8.635c0,0-2.119-4.768-3.973-5.827c-1.146-0.655-2.796-0.702-3.891-0.643l-7.313-6.567
			c0,0-1.323-1.323-1.323-4.948c0-3.626-0.221-6.514-3.307-9.6c-3.086-3.086-2.187-10.956-4.342-9.545
			c-4.775,3.127,0.594,14.615-2.271,13.292c-1.029-0.475-3.796-2.459-6.977-4.754c-2.437-4.061-3.119-7.898-4.282-8.636
			c-1.145-0.727-1.853,1.599-1.635,4.41c-3.785-2.641-7.045-4.714-7.606-4.247c-0.976,0.813,0.924,3.061,1.99,4.187
			c-0.319-0.316-0.728-0.71-1.176-1.119c-0.002-0.002-0.005-0.005-0.007-0.007l-0.009-0.008c-0.505-0.461-1.051-0.929-1.562-1.31
			l-0.027-0.023c0.001,0.002,0.001,0.003,0.002,0.005c-0.864-0.641-1.618-1.019-1.855-0.623c-0.661,1.102-0.639,3.548,2.327,7.831
			c2.966,4.284,13.51,18.453,18.453,21.748c4.578,3.052,10.013,23.343,26.306,38.862c0.307,1.188,0.628,2.395,0.964,3.617
			c0,0-0.005-0.005-0.005-0.005c0,36.985,4.088,56.095,4.088,56.095l-4.088,15.46l2.044,6.823c0,0-1.59,98.7,4.78,123.258H250
			C250,687.331,249.052,646.745,240.605,612.801z"/>
		<path style="clip-path:url(#SVGID_00000147216534148382726910000009629771641622356371_);fill:#E0B5A0;" d="M160.866,546.217
			c-0.066-0.596-0.133-1.192-0.202-1.788c-0.023-0.197-0.046-0.394-0.069-0.591c-0.047-0.407-0.095-0.814-0.144-1.221
			c-0.026-0.219-0.053-0.438-0.08-0.657c-0.046-0.379-0.093-0.758-0.14-1.137c-0.029-0.235-0.059-0.47-0.089-0.705
			c-0.047-0.366-0.094-0.732-0.142-1.098c-0.031-0.237-0.062-0.475-0.094-0.712c-0.048-0.362-0.097-0.723-0.146-1.083
			c-0.032-0.235-0.064-0.47-0.097-0.705c-0.052-0.377-0.106-0.752-0.16-1.127c-0.03-0.212-0.06-0.425-0.091-0.636
			c-0.064-0.443-0.13-0.883-0.197-1.322c-0.021-0.142-0.042-0.285-0.064-0.426c-0.088-0.58-0.178-1.156-0.27-1.729
			c-0.021-0.132-0.043-0.263-0.064-0.395c-0.07-0.437-0.142-0.873-0.214-1.306c-0.035-0.208-0.071-0.415-0.106-0.622
			c-0.061-0.355-0.121-0.71-0.183-1.062c-0.039-0.224-0.08-0.447-0.12-0.67c-0.06-0.333-0.12-0.666-0.181-0.996
			c-0.042-0.227-0.084-0.452-0.127-0.677c-0.061-0.324-0.123-0.646-0.185-0.966c-0.043-0.222-0.086-0.443-0.13-0.663
			c-0.065-0.328-0.131-0.653-0.198-0.977c-0.042-0.204-0.083-0.409-0.126-0.611c-0.073-0.346-0.146-0.688-0.22-1.029
			c-0.038-0.177-0.076-0.356-0.115-0.531c-0.107-0.482-0.215-0.958-0.324-1.428c-0.006-0.027-0.013-0.055-0.019-0.082
			c-0.116-0.497-0.235-0.987-0.355-1.47c-0.007-0.027-0.013-0.054-0.02-0.081c-0.098-0.394-0.197-0.783-0.298-1.167
			c-0.007-0.028-0.015-0.055-0.022-0.083c-0.101-0.384-0.203-0.763-0.307-1.137c-0.037-0.134-0.075-0.264-0.112-0.397
			c-0.075-0.266-0.15-0.531-0.227-0.792c-0.043-0.149-0.088-0.295-0.131-0.441c-0.072-0.24-0.144-0.478-0.217-0.713
			c-0.047-0.15-0.094-0.299-0.141-0.448c-0.073-0.228-0.146-0.454-0.22-0.677c-0.047-0.142-0.094-0.284-0.141-0.424
			c-0.071-0.208-0.142-0.412-0.213-0.616c1.034,0.382,1.819,0.639,2.278,0.745c3.334,0.772,7.66-14.57,7.113-16.334
			c-0.547-1.764-6.999-13.099-6.999-13.099s10.143-13.46,7.031-19.756c-3.112-6.296-3.362-15.71-3.362-15.71
			s0.104-34.555-4.773-53.409c-4.878-18.854-8.357-14.093-11.138-28.463c-2.781-14.37,1.803-30.782-3.639-41.617
			c-5.442-10.835-13.086-13.77-19.544-14.783c-6.458-1.013-20.092,1.756-21.362,14.034c0.207,0.006,0.398,0.025,0.599,0.036
			c-3.192,6.495-4.947,12.428-5.088,13.103c-0.147,0.702-2.296,2.208-2.202,3.509c0.094,1.302,3.336,3.321,3.336,3.321
			s0.379,8.687,2.782,11.204c1.183,1.239,5.332,1.011,9.629-0.655c-1.34,0.664-2.687,0.865-2.687,0.865s-5.092,18.421-9.077,23.583
			c-3.984,5.162-5.83,10.17-5.83,10.17l-3.427-0.354l-0.39,3.767c0,0-15.003-12.702-16.052-13.082
			c-0.165-0.06-0.478,0.21-0.886,0.815l-7.356-8.12c0,0-0.865-1.064-0.591-3.709c0.273-2.645,0.331-4.768-1.688-7.252
			c-2.018-2.484-0.769-8.156-2.447-7.29c-3.719,1.921-0.669,10.705-2.66,9.524c-0.715-0.424-2.583-2.08-4.731-3.994
			c-1.471-3.146-1.68-5.996-2.472-6.622c-0.781-0.616-1.473,1.026-1.525,3.094c-2.562-2.212-4.783-3.97-5.228-3.671
			c-0.773,0.519,0.443,2.302,1.135,3.204c-0.209-0.255-0.478-0.573-0.773-0.905c-0.001-0.002-0.003-0.004-0.004-0.005l-0.006-0.006
			c-0.334-0.374-0.697-0.757-1.041-1.074l-0.018-0.018c0,0.001,0.001,0.002,0.001,0.004c-0.582-0.533-1.103-0.865-1.307-0.594
			c-0.565,0.754-0.733,2.539,1.107,5.888c1.84,3.348,8.462,14.479,11.819,17.256c2.607,2.156,4.737,13.198,11.671,24.107
			c-0.749,5.059-1.505,15.969-1.505,15.969l0.403,0.447c-0.029,1.092-0.051,2.2-0.057,3.343
			c-0.072,12.312,7.936,26.211,18.139,38.764c-2.65,7.513-1.319,18.089-2.787,19.563c-1.675,1.674-4.088,10.684-3.039,14.861
			c0,0-11.414,82.116-7.872,90.627c3.542,8.511,96.213,7.391,96.213,7.391S163.28,568.036,160.866,546.217z"/>
		<path style="clip-path:url(#SVGID_00000147216534148382726910000009629771641622356371_);fill:#E0B5A0;" d="M386.254,618.046
			c-0.066-0.596-0.134-1.192-0.202-1.788c-0.023-0.197-0.046-0.394-0.069-0.591c-0.048-0.407-0.095-0.814-0.144-1.221
			c-0.026-0.219-0.053-0.438-0.08-0.657c-0.046-0.379-0.093-0.758-0.14-1.137c-0.03-0.235-0.059-0.47-0.089-0.705
			c-0.047-0.366-0.094-0.732-0.142-1.097c-0.031-0.237-0.062-0.475-0.094-0.712c-0.048-0.362-0.097-0.723-0.147-1.083
			c-0.032-0.235-0.064-0.47-0.097-0.705c-0.052-0.377-0.106-0.752-0.16-1.127c-0.03-0.212-0.06-0.425-0.091-0.636
			c-0.064-0.443-0.13-0.883-0.197-1.322c-0.021-0.142-0.042-0.285-0.064-0.426c-0.088-0.58-0.178-1.156-0.27-1.729
			c-0.021-0.132-0.043-0.263-0.064-0.395c-0.071-0.437-0.142-0.873-0.214-1.306c-0.035-0.208-0.071-0.415-0.106-0.622
			c-0.06-0.356-0.121-0.71-0.183-1.063c-0.039-0.224-0.079-0.447-0.119-0.67c-0.06-0.333-0.12-0.666-0.181-0.996
			c-0.042-0.227-0.084-0.452-0.127-0.677c-0.061-0.324-0.123-0.646-0.185-0.966c-0.043-0.222-0.086-0.443-0.13-0.663
			c-0.065-0.328-0.131-0.653-0.198-0.977c-0.042-0.204-0.084-0.409-0.126-0.611c-0.073-0.346-0.146-0.688-0.22-1.029
			c-0.038-0.177-0.076-0.356-0.115-0.531c-0.107-0.481-0.215-0.958-0.325-1.428c-0.006-0.027-0.012-0.055-0.019-0.082
			c-0.117-0.497-0.235-0.987-0.355-1.47c-0.007-0.027-0.013-0.054-0.02-0.081c-0.098-0.394-0.198-0.783-0.298-1.167
			c-0.007-0.028-0.015-0.055-0.022-0.083c-0.101-0.384-0.203-0.763-0.307-1.137c-0.037-0.134-0.075-0.264-0.112-0.397
			c-0.075-0.266-0.15-0.531-0.227-0.792c-0.044-0.149-0.087-0.295-0.131-0.441c-0.072-0.24-0.144-0.478-0.217-0.713
			c-0.047-0.15-0.094-0.299-0.141-0.448c-0.073-0.228-0.146-0.454-0.22-0.677c-0.047-0.142-0.094-0.284-0.141-0.424
			c-0.071-0.208-0.142-0.412-0.213-0.615c1.034,0.382,1.819,0.639,2.278,0.745c3.334,0.772,7.66-14.57,7.113-16.334
			c-0.547-1.763-6.999-13.099-6.999-13.099s10.143-13.46,7.031-19.756c-3.112-6.296-3.362-15.71-3.362-15.71
			s0.104-34.555-4.773-53.409c-4.878-18.854-8.357-14.093-11.138-28.463c-2.781-14.37,1.803-30.782-3.639-41.617
			c-5.442-10.835-13.086-13.77-19.544-14.783c-6.458-1.013-20.092,1.756-21.362,14.034c0.207,0.006,0.398,0.025,0.599,0.036
			c-3.192,6.495-4.947,12.428-5.088,13.103c-0.147,0.702-2.296,2.208-2.202,3.509c0.094,1.302,3.336,3.321,3.336,3.321
			s0.379,8.687,2.782,11.204c1.182,1.239,5.332,1.011,9.629-0.655c-1.34,0.664-2.687,0.865-2.687,0.865s-5.092,18.421-9.077,23.583
			c-3.985,5.162-5.83,10.17-5.83,10.17l-3.427-0.354l-0.39,3.767c0,0-15.003-12.702-16.052-13.082
			c-0.165-0.06-0.478,0.21-0.886,0.815l-7.356-8.12c0,0-0.865-1.064-0.591-3.709c0.273-2.645,0.331-4.768-1.688-7.252
			c-2.018-2.484-0.769-8.156-2.447-7.29c-3.719,1.92-0.669,10.705-2.66,9.524c-0.715-0.424-2.583-2.08-4.731-3.994
			c-1.471-3.146-1.679-5.996-2.472-6.622c-0.781-0.616-1.473,1.026-1.525,3.094c-2.562-2.212-4.783-3.97-5.228-3.671
			c-0.773,0.519,0.443,2.302,1.135,3.204c-0.209-0.255-0.478-0.573-0.773-0.905c-0.001-0.002-0.003-0.004-0.004-0.005l-0.006-0.006
			c-0.334-0.374-0.697-0.757-1.041-1.074l-0.018-0.018c0,0.001,0.001,0.002,0.001,0.004c-0.582-0.533-1.103-0.865-1.306-0.594
			c-0.566,0.754-0.733,2.539,1.107,5.888c1.84,3.348,8.462,14.479,11.819,17.256c2.607,2.156,4.737,13.198,11.671,24.107
			c-0.749,5.059-1.506,15.969-1.506,15.969l0.403,0.447c-0.029,1.092-0.05,2.2-0.057,3.343
			c-0.072,12.312,7.936,26.211,18.139,38.764c-2.65,7.513-1.319,18.089-2.787,19.563c-1.675,1.674-4.088,10.684-3.039,14.861
			c0,0-11.414,82.116-7.872,90.627c3.542,8.511,96.213,7.391,96.213,7.391S388.668,639.866,386.254,618.046z"/>
		<path style="clip-path:url(#SVGID_00000147216534148382726910000009629771641622356371_);fill:#E0B5A0;" d="M513.714,546.217
			c-0.066-0.596-0.133-1.192-0.202-1.788c-0.023-0.197-0.046-0.394-0.069-0.591c-0.048-0.407-0.095-0.814-0.144-1.221
			c-0.026-0.219-0.053-0.438-0.08-0.657c-0.046-0.379-0.093-0.758-0.14-1.137c-0.029-0.235-0.059-0.47-0.089-0.705
			c-0.047-0.366-0.094-0.732-0.142-1.098c-0.031-0.237-0.062-0.475-0.094-0.712c-0.048-0.362-0.097-0.723-0.147-1.083
			c-0.032-0.235-0.064-0.47-0.097-0.705c-0.052-0.377-0.106-0.752-0.16-1.127c-0.03-0.212-0.06-0.425-0.091-0.636
			c-0.064-0.443-0.13-0.883-0.197-1.322c-0.021-0.142-0.042-0.285-0.064-0.426c-0.088-0.58-0.178-1.156-0.27-1.729
			c-0.021-0.132-0.043-0.263-0.064-0.395c-0.071-0.437-0.142-0.873-0.214-1.306c-0.035-0.208-0.071-0.415-0.106-0.622
			c-0.061-0.355-0.121-0.71-0.183-1.062c-0.039-0.224-0.08-0.447-0.12-0.67c-0.06-0.333-0.12-0.666-0.181-0.996
			c-0.042-0.227-0.084-0.452-0.127-0.677c-0.061-0.324-0.123-0.646-0.185-0.966c-0.043-0.222-0.086-0.443-0.13-0.663
			c-0.065-0.328-0.131-0.653-0.198-0.977c-0.042-0.204-0.083-0.409-0.126-0.611c-0.073-0.346-0.146-0.688-0.22-1.029
			c-0.038-0.177-0.076-0.356-0.115-0.531c-0.107-0.482-0.215-0.958-0.324-1.428c-0.006-0.027-0.013-0.055-0.019-0.082
			c-0.116-0.497-0.235-0.987-0.355-1.47c-0.007-0.027-0.013-0.054-0.02-0.081c-0.098-0.394-0.197-0.783-0.298-1.167
			c-0.007-0.028-0.015-0.055-0.022-0.083c-0.101-0.384-0.203-0.763-0.306-1.137c-0.037-0.134-0.075-0.264-0.112-0.397
			c-0.075-0.266-0.15-0.531-0.227-0.792c-0.043-0.149-0.088-0.295-0.131-0.441c-0.072-0.24-0.144-0.478-0.217-0.713
			c-0.047-0.15-0.094-0.299-0.141-0.448c-0.073-0.228-0.146-0.454-0.22-0.677c-0.047-0.142-0.094-0.284-0.141-0.424
			c-0.071-0.208-0.142-0.412-0.213-0.616c1.033,0.382,1.819,0.639,2.278,0.745c3.334,0.772,7.66-14.57,7.113-16.334
			c-0.547-1.764-7-13.099-7-13.099s10.143-13.46,7.031-19.756c-3.112-6.296-3.362-15.71-3.362-15.71s0.104-34.555-4.773-53.409
			c-4.878-18.854-8.357-14.093-11.138-28.463c-2.781-14.37,1.803-30.782-3.639-41.617c-5.442-10.835-13.086-13.77-19.544-14.783
			c-6.458-1.013-20.092,1.756-21.362,14.034c0.207,0.006,0.398,0.025,0.599,0.036c-3.192,6.495-4.947,12.428-5.088,13.103
			c-0.147,0.702-2.296,2.208-2.202,3.509c0.094,1.302,3.336,3.321,3.336,3.321s0.379,8.687,2.782,11.204
			c1.182,1.239,5.332,1.011,9.629-0.655c-1.339,0.664-2.687,0.865-2.687,0.865s-5.092,18.421-9.077,23.583
			c-3.984,5.162-5.83,10.17-5.83,10.17l-3.427-0.354l-0.39,3.767c0,0-15.003-12.702-16.052-13.082
			c-0.165-0.06-0.478,0.21-0.886,0.815l-7.356-8.12c0,0-0.865-1.064-0.591-3.709c0.274-2.645,0.331-4.768-1.688-7.252
			c-2.018-2.484-0.769-8.156-2.447-7.29c-3.719,1.921-0.669,10.705-2.66,9.524c-0.715-0.424-2.583-2.08-4.731-3.994
			c-1.471-3.146-1.68-5.996-2.472-6.622c-0.781-0.616-1.473,1.026-1.525,3.094c-2.561-2.212-4.783-3.97-5.228-3.671
			c-0.773,0.519,0.443,2.302,1.135,3.204c-0.209-0.255-0.478-0.573-0.773-0.905c-0.001-0.002-0.003-0.004-0.004-0.005l-0.006-0.006
			c-0.334-0.374-0.697-0.757-1.041-1.074l-0.018-0.018c0,0.001,0.001,0.002,0.001,0.004c-0.582-0.533-1.103-0.865-1.307-0.594
			c-0.565,0.754-0.733,2.539,1.107,5.888c1.84,3.348,8.462,14.479,11.819,17.256c2.607,2.156,4.737,13.198,11.671,24.107
			c-0.749,5.059-1.505,15.969-1.505,15.969l0.403,0.447c-0.028,1.092-0.05,2.2-0.057,3.343
			c-0.072,12.312,7.936,26.211,18.139,38.764c-2.65,7.513-1.319,18.089-2.787,19.563c-1.675,1.674-4.088,10.684-3.039,14.861
			c0,0-11.414,82.116-7.872,90.627c3.542,8.511,96.213,7.391,96.213,7.391S516.128,568.036,513.714,546.217z"/>
		<path style="clip-path:url(#SVGID_00000147216534148382726910000009629771641622356371_);fill:#C49178;" d="M590.598,638.608
			c-1.896-7.634-4.177-14.922-6.908-21.346c5.051-2.541,12.099-17.375,12.099-17.375l-6.368-14.555c0,0,11.826-16.829,10.461-20.468
			c-1.365-3.639-10.461-13.645-10.461-13.645s-3.184-36.387-14.555-68.681c-9.575-27.192-15.28-44.707-21.459-51.736l0,0l0,0
			c-1.159-1.318-2.335-2.27-3.557-2.845l-2.729-12.117l-7.326-1.653l0,0l-3.136-0.708l-1.778-8.11
			c-2.719,0.624-6.393,2.23-10.404,4.332c5.128-7.485,11.947-20.539,7.007-31.857c-7.43-17.026-25.946-15.826-34.966-11.178
			c-9.021,4.648-10.973,12.028-10.777,17.453c0,0,0.001-0.001,0.001-0.001c-2.621,7.62-3.821,14.092-3.903,14.88
			c-0.092,0.891-4.647,3.57-4.363,5.175c0.284,1.605,6.65,3.165,6.65,3.165s1.587,10.744,4.897,13.563
			c1.765,1.504,7.64,0.422,13.167-2.747l1.566,3.437l0,0l0.375,0.823c-5.409,3.882-9.081,7.018-8.581,7.525
			c0.796,0.806,2.372,4.107,3.531,6.683l1.416,3.24l-4.947,4.448v5.475c0,0-3.27,9.344-5.325,16.983l-0.001-0.001l-0.002,0.012
			c-0.994,3.696-1.704,6.994-1.618,8.635c0,0-2.119-4.768-3.973-5.827c-1.146-0.655-2.796-0.702-3.891-0.643l-7.313-6.567
			c0,0-1.323-1.323-1.323-4.948c0-3.626-0.22-6.514-3.306-9.6c-3.086-3.086-2.187-10.956-4.342-9.545
			c-4.775,3.127,0.594,14.615-2.271,13.292c-1.029-0.475-3.796-2.459-6.977-4.754c-2.437-4.061-3.119-7.898-4.282-8.636
			c-1.145-0.727-1.854,1.599-1.635,4.41c-3.785-2.641-7.045-4.714-7.606-4.247c-0.975,0.813,0.924,3.061,1.99,4.187
			c-0.319-0.316-0.728-0.71-1.176-1.119c-0.002-0.002-0.005-0.005-0.007-0.007l-0.009-0.008c-0.505-0.461-1.051-0.929-1.562-1.31
			l-0.027-0.023c0.001,0.002,0.001,0.003,0.002,0.005c-0.864-0.641-1.618-1.019-1.855-0.623c-0.661,1.102-0.639,3.547,2.327,7.831
			c2.966,4.284,13.51,18.453,18.453,21.748c4.578,3.052,10.012,23.343,26.306,38.862c0.307,1.188,0.628,2.395,0.964,3.617
			c0,0-0.005-0.005-0.005-0.005c0,36.985,4.087,56.095,4.087,56.095l-4.087,15.46l2.044,6.823c0,0-1.591,98.7,4.78,123.258h106.084
			C599.993,713.138,599.045,672.552,590.598,638.608z"/>
		<g style="clip-path:url(#SVGID_00000147216534148382726910000009629771641622356371_);">
			<path style="fill:#FB9F90;" d="M134.11,234.087c-5.804-6.205-6.637-13.697-8.468-14.859c-1.831-1.162-2.746,4.102-1.373,8.68
				C125.642,232.485,134.11,234.087,134.11,234.087z"/>
			<path style="fill:#EF7F73;" d="M134.11,234.087c-5.804-6.205-6.637-13.697-8.468-14.859c-1.831-1.162-2.746,4.102-1.373,8.68
				C125.642,232.485,134.11,234.087,134.11,234.087z"/>
			<path style="fill:#FB9F90;" d="M173.331,308.2c-23.7-19.153-30.898-47.543-36.896-51.541
				c-5.998-3.999-18.794-21.193-22.392-26.391c-3.599-5.198-3.626-8.165-2.824-9.503c0.802-1.338,6.42,4.547,6.42,4.547
				s-4.815-4.547-3.21-5.885c1.605-1.337,21.399,14.445,24.877,16.05c3.477,1.605-3.038-12.335,2.756-16.13
				c2.614-1.712,1.523,7.838,5.268,11.583c3.745,3.745,4.012,7.25,4.012,11.65c0,4.4,1.605,6.005,1.605,6.005l13.107,11.77
				L173.331,308.2z"/>
			<path style="fill:#FFFFFF;" d="M306.53,552.88H177.8c-7.73-29.8-5.8-149.57-5.8-149.57l-2.48-8.28l4.96-18.76
				c0,0-4.96-23.19-4.96-68.07c0,0,79.48,76.34,107.07,110.56c8.22,10.19,14.2,26.21,18.54,43.68
				C305.38,503.63,306.53,552.88,306.53,552.88z"/>
			<path style="fill:#F0F0F0;" d="M295.13,462.44c-8.15,3.18-17.09,5.04-24.63,2.73c-19.7-6.03-72.91-47.66-96.02-88.9
				c0,0-4.96-23.19-4.96-68.07c0,0,49.77,47.8,84.21,84.71c9.09,9.73,17.1,18.71,22.86,25.85c6.49,8.04,11.58,19.72,15.57,32.88
				C293.23,455.15,294.22,458.76,295.13,462.44z"/>
			<path style="fill:#D1CBCB;" d="M292.16,451.64c-3.82,0.33-8.24,0.15-13.32-0.76c-28.39-5.09-76.59-47.08-86.77-103.61
				l61.66,45.64c9.09,9.73,17.1,18.71,22.86,25.85C283.08,426.8,288.17,438.48,292.16,451.64z"/>
			<g>
				<polygon style="fill:#FB9F90;" points="200.867,179.411 209.988,191.555 191.804,203.6 185.797,190.413 				"/>
				<path style="fill:#ED9272;" d="M203.75,183.249c-4.882,9.31-13.998,15.845-13.998,15.845l-3.955-8.68l15.071-11.002
					L203.75,183.249z"/>
				<path style="fill:#FB9F90;" d="M169.237,149.911c-4.121,10.771-5.968,20.686-6.08,21.767c-0.112,1.081-3.821,4.306-3.476,6.254
					c0.344,1.948,6.251,3.867,6.251,3.867s1.926,13.037,5.942,16.458c4.016,3.421,25.562-4.179,28.994-18.845
					c3.432-14.667-3.73-29.886-13.207-33.326C178.184,142.644,169.237,149.911,169.237,149.911z"/>
				<path style="fill:#DB7E40;" d="M167.891,153.624c9.208-8.827,16.549-4.679,16.098,5.437
					c-0.451,10.115,5.438,11.917,6.962,11.647c1.524-0.269,4.504-9.249,9.997-6.296c5.493,2.953-0.393,16.138-0.393,16.138
					l8.584,11.567c0,0,23.277-25.447,14.261-46.108c-9.017-20.661-31.484-19.204-42.43-13.564
					C170.023,138.086,167.653,147.042,167.891,153.624z"/>
				<path style="fill:#4D3932;" d="M170.159,151.683c-8.475,3.407-10.927-10.473,2.072-17.908
					c12.999-7.436,19.939-12.145,35.554-7.684c15.615,4.461,25.033,14.871,24.042,31.725c-0.991,16.854-13.384,30.489-16.854,31.975
					c-3.47,1.486-9.392-1.511-9.777-2.987c-0.385-1.476-9.137-11.258-10.852-13.373c-1.715-2.115-3.618,1.626-5.746,1.557
					c-2.128-0.07-4.141-20.067-5.985-22.957C180.769,149.141,173.926,154.72,170.159,151.683z"/>
				<path style="fill:#F2F2F9;" d="M195.033,187.311c2.951-3.588,3.514-8.517,3.514-8.517l1.565-0.84c0,0-0.117,6.592-4.685,10.569
					C190.858,192.498,195.033,187.311,195.033,187.311z"/>
				<path style="fill:#FB9F90;" d="M192.629,171.316c-2.105-10.248,7.218-13.292,10.434-10.528
					c4.577,3.933,1.389,19.713-4.324,22.031C193.026,185.136,193.614,176.112,192.629,171.316z"/>
				<path style="fill:#EF7F73;" d="M195.28,171.374c-1.053-5.124,3.609-6.646,5.217-5.264c2.289,1.966,0.694,9.857-2.162,11.015
					C195.479,178.284,195.772,173.772,195.28,171.374z"/>
				<path style="fill:#54321D;" d="M169.417,166.885c-0.19,1.834,0.299,3.388,1.092,3.47s1.59-1.338,1.781-3.172
					c0.19-1.834-0.299-3.388-1.092-3.47C170.404,163.63,169.607,165.051,169.417,166.885z"/>
				<path style="fill:none;stroke:#E86734;stroke-linecap:round;stroke-miterlimit:10;" d="M172.951,185.306
					c3.176,0.874,4.242-4.158,4.242-4.158"/>
				<path style="fill:#54321D;" d="M170.3,157.076c0.439-1.099,1.698-1.641,2.838-1.324c2.431,0.677,3.761,2.258,3.169,3.689
					c-0.721,1.741-1.919-2.788-4.789-1.837C170.226,158.032,170.075,157.638,170.3,157.076z"/>
			</g>
			<path style="fill:#FFFFFF;" d="M227.521,179.411c-14.117,3.239-49.368,28.151-47.727,29.812
				c1.64,1.661,6.003,12.041,6.003,12.041l-6.003,5.398v6.643c0,0-8.75,24.993-8.429,31.1c0,0-2.571-5.786-4.821-7.072
				s-6.107-0.643-6.107-0.643s1.906,45.616,25.087,95.29c23.181,49.674,93.277,84.446,99.348,84.998
				c6.071,0.552,16.558-21.525,16.558-21.525l-7.727-17.662c0,0,14.35-20.422,12.694-24.837
				c-1.656-4.415-12.694-16.558-12.694-16.558s-3.863-44.155-17.662-83.342c-13.798-39.187-20.973-61.817-30.356-66.232
				l-3.312-14.704l-12.695-2.865L227.521,179.411z"/>
			<path style="fill:#F0F0F0;" d="M293.702,356.396c-27.045-23.733-68.227-48.196-68.227-48.196s37.719,18.412,48.585,26.474
				l-12.619-17.099l29.739,18.914L293.702,356.396z"/>
			<path style="fill:#F0F0F0;" d="M171.365,264.405c14.158,18.032,36.236,30.727,36.236,30.727s-21.475-18.912-27.807-30.307
				c0,0,12.741,5.906,9.689,4.303c-3.052-1.603-16.152-15.214-16.152-15.214L171.365,264.405z"/>
			<path style="fill:#F0F0F0;" d="M229.678,189.252c-10.273,10.637-24.433,20.103-24.433,20.103s20.18-10.516,28.238-19.245
				L229.678,189.252z"/>
			<path style="fill:#F0F0F0;" d="M245.684,206.822c-7.772,7.946-16.844,14.115-16.844,14.115L250,210.274L245.684,206.822z"/>
			<path style="fill:#F0F0F0;" d="M184.077,217.329c12.829,3.245,32.061-4.288,32.061-4.288l-6.151,5.1l18.852-8.785
				c0,0-17.864,19.855-43.043,11.908L184.077,217.329z"/>
			<path style="fill:#F0F0F0;" d="M293.702,397.791c-20.661-14.809-34.114-28.454-34.114-28.454l37.638,23.202L293.702,397.791z"/>
			<path style="fill:#FB9F90;" d="M115.408,223.141c4.359,4.668,13.451,11.708,13.451,11.708s-11.502-4.068-15.391-13.334
				L115.408,223.141z"/>
			<g>
				<path style="fill:#E1E1FF;" d="M195.85,188.52c-7.93,10.81-21.6,12.56-23.04,11.15c-6.97-6.89-8.55-15.69-8.55-15.69
					s-3.4-2.12-4.9-4.26c-0.19-0.27-0.29-0.56-0.31-0.89c-0.23-2.32,2.98-5.87,2.98-5.87c8.48,3.17,22.92-5.08,22.92-5.08l0.72,2.9
					c0,0,3.85,5.37,6.84,10.23C194.68,184.53,196.39,187.78,195.85,188.52z"/>
				<polygon style="fill:#E1E1FF;" points="184.945,167.876 194.344,162.529 193.288,164.058 184.327,171.831 				"/>
				<path style="fill:#CACAFF;" d="M195.85,188.52c-7.93,10.81-21.6,12.56-23.04,11.15c-6.97-6.89-8.55-15.69-8.55-15.69
					s-3.4-2.12-4.9-4.26c-0.19-0.27-0.29-0.56-0.31-0.89c2.51,2.2,5.95,0.17,7.3,3.4c1.48,3.52,0.8,11.93,8.75,12.5
					c7.96,0.57,14.52-4.9,17.41-13.72C194.68,184.53,196.39,187.78,195.85,188.52z"/>
				<path style="fill:#F2F2F9;" d="M185.67,170.78c-14.495,8.428-24.966,3.876-24.966,3.876l1.085-2.241
					c0,0,17.564,1.466,34.161-11.308l-3.182,4.306L185.67,170.78z"/>
			</g>
		</g>
		<g style="clip-path:url(#SVGID_00000147216534148382726910000009629771641622356371_);">
			<path style="fill:#FFFFFF;" d="M478.28,552.88c0,0-133.75,15.47-140.14,3.7c-6.39-11.77-2.17-132.14-2.17-132.14
				c-2.14-5.88,0-19.26,2.17-21.93c2.17-2.68-2.7-21.94,2.65-33.17c0,0,86.67,41.19,105.39,61.2c8.43,9.01,15.78,34.72,21.31,60.26
				C474.24,521.97,478.28,552.88,478.28,552.88z"/>
			<path style="fill:#FB9F90;" d="M283.45,238.885c-5.095-5.447-5.827-12.025-7.434-13.045c-1.607-1.02-2.411,3.602-1.206,7.62
				C276.016,237.479,283.45,238.885,283.45,238.885z"/>
			<path style="fill:#EF7F73;" d="M283.45,238.885c-5.095-5.447-5.827-12.025-7.434-13.045c-1.607-1.02-2.411,3.602-1.206,7.62
				C276.016,237.479,283.45,238.885,283.45,238.885z"/>
			<path style="fill:#FB9F90;" d="M317.883,303.95c-20.807-16.815-27.126-41.739-32.391-45.249
				c-5.266-3.51-16.499-18.605-19.659-23.169c-3.159-4.564-3.184-7.169-2.479-8.343c0.704-1.174,5.636,3.992,5.636,3.992
				s-4.227-3.992-2.818-5.166c1.409-1.174,18.787,12.681,21.84,14.09c3.053,1.409-2.667-10.829,2.42-14.161
				c2.295-1.503,1.337,6.881,4.625,10.169c3.288,3.288,3.523,6.365,3.523,10.228c0,3.863,1.409,5.272,1.409,5.272l14.751,13.246
				L317.883,303.95z"/>
			<path style="fill:#FB9F90;" d="M267.031,229.275c3.827,4.098,11.809,10.278,11.809,10.278s-10.097-3.571-13.512-11.707
				L267.031,229.275z"/>
			<g>
				<polygon style="fill:#FB9F90;" points="377.371,203.607 386.113,215.248 368.684,226.793 362.925,214.153 				"/>
				<path style="fill:#FB9F90;" d="M380.134,207.286c-4.679,8.924-13.418,15.187-13.418,15.187l-3.79-8.32l14.445-10.546
					L380.134,207.286z"/>
				<path style="fill:#FB9F90;" d="M347.052,175.331c-3.95,10.325-5.721,19.828-5.828,20.864s-2.988,3.533-2.658,5.4
					c0.33,1.867,5.318,4.301,5.318,4.301s1.846,12.496,5.695,15.775s24.501-4.005,27.792-18.064
					c3.29-14.058-3.576-28.646-12.659-31.944C355.629,168.366,347.052,175.331,347.052,175.331z"/>
				<path style="fill:#FB9F90;" d="M369.474,195.848c-2.018-9.823,6.919-12.74,10.001-10.092c4.387,3.77,1.331,18.896-4.145,21.117
					C369.855,209.094,370.418,200.445,369.474,195.848z"/>
				<path style="fill:#FB9F90;" d="M372.015,195.904c-1.009-4.911,3.459-6.37,5.001-5.046c2.194,1.885,0.666,9.448-2.072,10.558
					C372.206,202.527,372.487,198.202,372.015,195.904z"/>
				<path style="fill:#54321D;" d="M347.225,191.601c-0.182,1.758,0.286,3.247,1.047,3.326c0.76,0.079,1.524-1.283,1.707-3.041
					c0.182-1.758-0.286-3.247-1.047-3.326C348.172,188.481,347.408,189.843,347.225,191.601z"/>
				<path style="fill:none;stroke:#E86734;stroke-linecap:round;stroke-miterlimit:10;" d="M350.613,209.258
					c3.044,0.837,4.066-3.986,4.066-3.986"/>
				<path style="fill:#54321D;" d="M348.072,182.199c0.421-1.053,1.628-1.573,2.721-1.269c2.33,0.649,3.605,2.165,3.037,3.536
					c-0.691,1.669-1.84-2.672-4.591-1.761C348.001,183.115,347.856,182.738,348.072,182.199z"/>
				<g>
					<path style="fill:#E1E1FF;" d="M374.418,211.528c-7.93,10.81-21.6,12.56-23.04,11.15c-6.97-6.89-8.55-15.69-8.55-15.69
						s-3.4-2.12-4.9-4.26c-0.19-0.27-0.29-0.56-0.31-0.89c-0.23-2.32,2.98-5.87,2.98-5.87c8.48,3.17,22.92-5.08,22.92-5.08l0.72,2.9
						c0,0,3.85,5.37,6.84,10.23C373.248,207.538,374.959,210.788,374.418,211.528z"/>
					<polygon style="fill:#E1E1FF;" points="363.514,190.884 372.912,185.538 371.857,187.066 362.896,194.84 					"/>
					<path style="fill:#CACAFF;" d="M374.418,211.528c-7.93,10.81-21.6,12.56-23.04,11.15c-6.97-6.89-8.55-15.69-8.55-15.69
						s-3.4-2.12-4.9-4.26c-0.19-0.27-0.29-0.56-0.31-0.89c2.51,2.2,5.95,0.17,7.3,3.4c1.48,3.52,0.8,11.93,8.75,12.5
						c7.96,0.57,14.52-4.9,17.41-13.72C373.248,207.538,374.959,210.788,374.418,211.528z"/>
					<path style="fill:#F2F2F9;" d="M364.238,193.788c-14.495,8.428-24.966,3.876-24.966,3.876l1.085-2.241
						c0,0,17.564,1.466,34.161-11.308l-3.182,4.305L364.238,193.788z"/>
				</g>
			</g>
			<path style="fill:#F0F0F0;" d="M467.49,490.8c-36.78,3.46-102.23-31.42-129.35-88.29c2.17-2.68-2.7-21.94,2.65-33.17
				c0,0,86.67,41.19,105.39,61.2c3.66,3.91,7.11,10.96,10.3,19.77c1.1,3.04,2.17,6.3,3.21,9.71
				C462.57,469.5,465.19,480.17,467.49,490.8z"/>
			<path style="fill:#D1CBCB;" d="M459.69,460.02h-0.01c-29.5,8.5-98.37-39.67-118.89-90.68c0,0,86.67,41.19,105.39,61.2
				c3.66,3.91,7.11,10.96,10.3,19.77C457.58,453.35,458.65,456.61,459.69,460.02z"/>
			<path style="fill:#FFFFFF;" d="M345.747,176.537c12.274-0.895,18.496,4.611,18.496,4.611s3.564,31.711,2.03,35.101
				c-1.534,3.39-6.63,4.688-6.63,4.688s-4.605,27.381-9.592,35.436c-4.987,8.055-6.904,15.568-6.904,15.568h-5.005v5.502
				c0,0-23.579-16.113-25.152-16.506c-1.572-0.393-9.691,19.211-5.754,59.582c3.938,40.371,69.131,86.334,91.331,98.667
				c22.2,12.333,52.417,21.583,57.35,22.2c4.933,0.617,8.891-22.2,7.837-24.667c-1.054-2.467-12.073-17.883-12.073-17.883
				s12.645-20.967,7.207-29.6c-5.438-8.633-7.207-22.2-7.207-22.2s-5.014-49.95-14.881-76.467
				c-9.867-26.517-14.183-19.117-20.35-39.467c-6.167-20.35-1.996-44.752-11.48-59.596c-9.484-14.844-20.969-17.942-30.453-18.441
				C365.035,152.566,345.747,158.605,345.747,176.537z"/>
			<path style="fill:#F0F0F0;" d="M343.147,271.94c4.598,3.905,26.034,7.828,26.034,7.828c-10.315,4.106-16.535,2.025-16.535,2.025
				s13.443,28.897,22.319,35.783c0,0-27.221-25.279-36.823-40.133v-5.502H343.147z"/>
			<path style="fill:#F0F0F0;" d="M451.682,398.836c-20.077-17.863-51.375-51.568-51.375-51.568
				c22.733,18.82,34.528,22.07,34.528,22.07l-25.323-34.47c0,0,34.882,44.72,48.662,50.111L451.682,398.836z"/>
			<path style="fill:#F0F0F0;" d="M306.17,289.086c16.696,46.545,50.383,71.422,50.383,71.422l-50.383-45.415
				C306.17,315.094,305.457,294.047,306.17,289.086z"/>
		</g>
	</g>
</g>
</svg>
