<?xml version="1.0" encoding="UTF-8"?>
<svg id="Layer_1" data-name="Layer 1" xmlns="http://www.w3.org/2000/svg" viewBox="0 0 147 75">
  <defs>
    <style>
      .cls-1, .cls-2, .cls-3 {
        stroke-width: 0px;
      }

      .cls-2 {
        fill: #00b67a;
      }

      .cls-3 {
        fill: #005128;
      }
    </style>
  </defs>
  <path class="cls-1" d="M39.02,32.62h14.82v2.76h-5.83v15.55h-3.2v-15.55h-5.81l.02-2.76ZM53.2,37.68h2.73v2.56h.05c.1-.37.27-.71.51-1.05s.54-.66.9-.93c.34-.29.73-.51,1.17-.68.42-.17.85-.27,1.29-.27.34,0,.59.02.71.02.12.02.27.05.39.05v2.81c-.2-.05-.42-.07-.63-.1s-.42-.05-.63-.05c-.49,0-.95.1-1.39.29s-.81.49-1.15.85c-.32.39-.59.85-.78,1.42s-.29,1.22-.29,1.95v6.3h-2.93l.05-13.18ZM74.39,50.93h-2.88v-1.86h-.05c-.37.68-.9,1.2-1.61,1.61s-1.44.61-2.17.61c-1.73,0-3-.42-3.78-1.29-.78-.85-1.17-2.17-1.17-3.91v-8.42h2.93v8.13c0,1.17.22,2,.68,2.47.44.49,1.07.73,1.88.73.61,0,1.12-.1,1.54-.29s.76-.44,1-.76c.27-.32.44-.71.56-1.15s.17-.93.17-1.44v-7.69h2.93v13.26h-.02ZM79.37,46.68c.1.85.42,1.44.98,1.81.56.34,1.25.51,2.03.51.27,0,.59-.02.93-.07s.68-.12.98-.24c.32-.12.56-.29.76-.54s.29-.54.27-.9-.15-.68-.42-.93-.59-.42-.98-.59c-.39-.15-.85-.27-1.37-.37s-1.03-.22-1.56-.34-1.07-.27-1.59-.44-.95-.39-1.37-.71c-.39-.29-.73-.66-.95-1.12-.24-.46-.37-1-.37-1.68,0-.73.17-1.32.54-1.81.34-.49.81-.88,1.34-1.17s1.15-.51,1.81-.63,1.29-.17,1.88-.17c.68,0,1.34.07,1.95.22s1.2.37,1.68.71c.51.32.93.76,1.25,1.27.34.51.54,1.15.63,1.88h-3.05c-.15-.71-.46-1.17-.95-1.42-.51-.24-1.07-.37-1.73-.37-.2,0-.46.02-.73.05-.29.05-.54.1-.81.2-.24.1-.46.24-.63.42s-.27.42-.27.71c0,.37.12.63.37.85s.56.39.98.56c.39.15.85.27,1.37.37s1.05.22,1.59.34,1.05.27,1.56.44.98.39,1.37.71c.39.29.73.66.98,1.1s.37,1,.37,1.64c0,.78-.17,1.44-.54,2-.37.54-.83,1-1.39,1.34s-1.22.59-1.9.76c-.71.15-1.39.24-2.08.24-.83,0-1.61-.1-2.32-.29s-1.34-.49-1.86-.85c-.51-.39-.93-.85-1.22-1.44-.29-.56-.46-1.25-.49-2.05h2.95v.02h.02ZM89.02,37.68h2.22v-4h2.93v3.98h2.64v2.17h-2.64v7.08c0,.32.02.56.05.81.02.22.1.42.17.56.1.15.24.27.42.34.2.07.44.12.78.12.2,0,.42,0,.61-.02s.42-.05.61-.1v2.27c-.32.05-.63.07-.95.1-.32.05-.61.05-.95.05-.78,0-1.39-.07-1.86-.22s-.83-.37-1.1-.63c-.27-.29-.44-.63-.54-1.05s-.15-.93-.17-1.46v-7.81h-2.22v-2.22.05ZM98.86,37.68h2.76v1.81h.05c.42-.78.98-1.32,1.71-1.66s1.51-.51,2.39-.51c1.05,0,1.95.17,2.73.56.78.37,1.42.85,1.93,1.51.51.63.9,1.39,1.15,2.25s.39,1.78.39,2.73-.12,1.76-.34,2.59c-.24.83-.59,1.59-1.05,2.22s-1.05,1.15-1.78,1.54-1.56.59-2.54.59c-.42,0-.85-.05-1.27-.12s-.83-.2-1.22-.37-.76-.39-1.07-.66c-.34-.27-.61-.59-.83-.93h-.05v6.62h-2.93v-18.16h-.02ZM109.09,44.32c0-.59-.07-1.17-.24-1.73-.15-.56-.39-1.05-.71-1.49s-.71-.78-1.15-1.05c-.46-.27-1-.39-1.59-.39-1.22,0-2.15.42-2.78,1.27-.61.85-.93,2-.93,3.42,0,.68.07,1.29.24,1.86s.39,1.05.73,1.46c.32.42.71.73,1.17.98s.98.37,1.59.37c.68,0,1.22-.15,1.68-.42s.83-.63,1.15-1.05c.29-.44.51-.93.63-1.49.12-.59.2-1.15.2-1.73ZM114.24,32.62h2.93v2.76h-2.93v-2.76ZM114.24,37.68h2.93v13.26h-2.93v-13.26ZM119.78,32.62h2.93v18.31h-2.93v-18.31ZM131.64,51.3c-1.05,0-2-.17-2.83-.54s-1.51-.83-2.1-1.44c-.56-.61-1-1.37-1.29-2.22s-.46-1.81-.46-2.81.15-1.93.46-2.78c.29-.85.73-1.59,1.29-2.22.56-.61,1.27-1.1,2.1-1.44s1.78-.54,2.83-.54,2,.17,2.83.54c.83.34,1.51.83,2.1,1.44.56.61,1,1.37,1.29,2.22s.46,1.78.46,2.78-.15,1.95-.46,2.81-.73,1.59-1.29,2.22c-.56.61-1.27,1.1-2.1,1.44s-1.76.54-2.83.54ZM131.64,48.98c.63,0,1.22-.15,1.68-.42.49-.27.85-.63,1.17-1.07s.54-.95.68-1.49c.15-.56.22-1.12.22-1.71s-.07-1.12-.22-1.68-.37-1.05-.68-1.49-.71-.78-1.17-1.05c-.49-.27-1.05-.42-1.68-.42s-1.22.15-1.68.42c-.49.27-.85.63-1.17,1.05-.32.44-.54.93-.68,1.49s-.22,1.12-.22,1.68.07,1.15.22,1.71.37,1.05.68,1.49.71.81,1.17,1.07c.49.29,1.05.42,1.68.42ZM139.21,37.68h2.22v-4h2.93v3.98h2.64v2.17h-2.64v7.08c0,.32.02.56.05.81.02.22.1.42.17.56.1.15.24.27.42.34.2.07.44.12.78.12.2,0,.42,0,.61-.02s.42-.05.61-.1v2.27c-.32.05-.63.07-.95.1-.32.05-.61.05-.95.05-.78,0-1.39-.07-1.86-.22s-.83-.37-1.1-.63c-.27-.29-.44-.63-.54-1.05s-.15-.93-.17-1.46v-7.81h-2.22v-2.22.05Z"/>
  <path class="cls-2" d="M35.08,32.62h-13.4l-4.13-12.74-4.15,12.74-13.4-.02,10.84,7.89-4.15,12.74,10.84-7.89,10.84,7.89-4.13-12.74,10.84-7.86Z"/>
  <path class="cls-3" d="M25.17,43.36l-.93-2.88-6.69,4.86,7.62-1.98Z"/>
</svg>